<?xml version="1.0" encoding="utf-8" standalone="no"?>
<!DOCTYPE svg PUBLIC "-//W3C//DTD SVG 1.1//EN"
  "http://www.w3.org/Graphics/SVG/1.1/DTD/svg11.dtd">
<svg xmlns:xlink="http://www.w3.org/1999/xlink" width="460.8pt" height="345.6pt" viewBox="0 0 460.8 345.6" xmlns="http://www.w3.org/2000/svg" version="1.1">
 <metadata>
  <rdf:RDF xmlns:dc="http://purl.org/dc/elements/1.1/" xmlns:cc="http://creativecommons.org/ns#" xmlns:rdf="http://www.w3.org/1999/02/22-rdf-syntax-ns#">
   <cc:Work>
    <dc:type rdf:resource="http://purl.org/dc/dcmitype/StillImage"/>
    <dc:date>2022-01-06T10:57:59.224763</dc:date>
    <dc:format>image/svg+xml</dc:format>
    <dc:creator>
     <cc:Agent>
      <dc:title>Matplotlib v3.5.1, https://matplotlib.org/</dc:title>
     </cc:Agent>
    </dc:creator>
   </cc:Work>
  </rdf:RDF>
 </metadata>
 <defs>
  <style type="text/css">*{stroke-linejoin: round; stroke-linecap: butt}</style>
 </defs>
 <g id="figure_1">
  <g id="patch_1">
   <path d="M 0 345.6 
L 460.8 345.6 
L 460.8 0 
L 0 0 
z
" style="fill: #ffffff"/>
  </g>
  <g id="axes_1">
   <g id="patch_2">
    <path d="M 57.6 307.584 
L 414.72 307.584 
L 414.72 41.472 
L 57.6 41.472 
z
" style="fill: #ffffff"/>
   </g>
   <g id="matplotlib.axis_1">
    <g id="xtick_1">
     <g id="line2d_1">
      <path d="M 73.832727 307.584 
L 73.832727 41.472 
" clip-path="url(#pd27cf416de)" style="fill: none; stroke: #b0b0b0; stroke-width: 0.8; stroke-linecap: square"/>
     </g>
     <g id="line2d_2">
      <defs>
       <path id="m44dbc7bfb0" d="M 0 0 
L 0 3.5 
" style="stroke: #000000; stroke-width: 0.8"/>
      </defs>
      <g>
       <use xlink:href="#m44dbc7bfb0" x="73.832727" y="307.584" style="stroke: #000000; stroke-width: 0.8"/>
      </g>
     </g>
     <g id="text_1">
      <!-- 0 -->
      <g transform="translate(70.651477 322.182437)scale(0.1 -0.1)">
       <defs>
        <path id="DejaVuSans-30" d="M 2034 4250 
Q 1547 4250 1301 3770 
Q 1056 3291 1056 2328 
Q 1056 1369 1301 889 
Q 1547 409 2034 409 
Q 2525 409 2770 889 
Q 3016 1369 3016 2328 
Q 3016 3291 2770 3770 
Q 2525 4250 2034 4250 
z
M 2034 4750 
Q 2819 4750 3233 4129 
Q 3647 3509 3647 2328 
Q 3647 1150 3233 529 
Q 2819 -91 2034 -91 
Q 1250 -91 836 529 
Q 422 1150 422 2328 
Q 422 3509 836 4129 
Q 1250 4750 2034 4750 
z
" transform="scale(0.015625)"/>
       </defs>
       <use xlink:href="#DejaVuSans-30"/>
      </g>
     </g>
    </g>
    <g id="xtick_2">
     <g id="line2d_3">
      <path d="M 128.122785 307.584 
L 128.122785 41.472 
" clip-path="url(#pd27cf416de)" style="fill: none; stroke: #b0b0b0; stroke-width: 0.8; stroke-linecap: square"/>
     </g>
     <g id="line2d_4">
      <g>
       <use xlink:href="#m44dbc7bfb0" x="128.122785" y="307.584" style="stroke: #000000; stroke-width: 0.8"/>
      </g>
     </g>
     <g id="text_2">
      <!-- 50 -->
      <g transform="translate(121.760285 322.182437)scale(0.1 -0.1)">
       <defs>
        <path id="DejaVuSans-35" d="M 691 4666 
L 3169 4666 
L 3169 4134 
L 1269 4134 
L 1269 2991 
Q 1406 3038 1543 3061 
Q 1681 3084 1819 3084 
Q 2600 3084 3056 2656 
Q 3513 2228 3513 1497 
Q 3513 744 3044 326 
Q 2575 -91 1722 -91 
Q 1428 -91 1123 -41 
Q 819 9 494 109 
L 494 744 
Q 775 591 1075 516 
Q 1375 441 1709 441 
Q 2250 441 2565 725 
Q 2881 1009 2881 1497 
Q 2881 1984 2565 2268 
Q 2250 2553 1709 2553 
Q 1456 2553 1204 2497 
Q 953 2441 691 2322 
L 691 4666 
z
" transform="scale(0.015625)"/>
       </defs>
       <use xlink:href="#DejaVuSans-35"/>
       <use xlink:href="#DejaVuSans-30" x="63.623047"/>
      </g>
     </g>
    </g>
    <g id="xtick_3">
     <g id="line2d_5">
      <path d="M 182.412843 307.584 
L 182.412843 41.472 
" clip-path="url(#pd27cf416de)" style="fill: none; stroke: #b0b0b0; stroke-width: 0.8; stroke-linecap: square"/>
     </g>
     <g id="line2d_6">
      <g>
       <use xlink:href="#m44dbc7bfb0" x="182.412843" y="307.584" style="stroke: #000000; stroke-width: 0.8"/>
      </g>
     </g>
     <g id="text_3">
      <!-- 100 -->
      <g transform="translate(172.869093 322.182437)scale(0.1 -0.1)">
       <defs>
        <path id="DejaVuSans-31" d="M 794 531 
L 1825 531 
L 1825 4091 
L 703 3866 
L 703 4441 
L 1819 4666 
L 2450 4666 
L 2450 531 
L 3481 531 
L 3481 0 
L 794 0 
L 794 531 
z
" transform="scale(0.015625)"/>
       </defs>
       <use xlink:href="#DejaVuSans-31"/>
       <use xlink:href="#DejaVuSans-30" x="63.623047"/>
       <use xlink:href="#DejaVuSans-30" x="127.246094"/>
      </g>
     </g>
    </g>
    <g id="xtick_4">
     <g id="line2d_7">
      <path d="M 236.702901 307.584 
L 236.702901 41.472 
" clip-path="url(#pd27cf416de)" style="fill: none; stroke: #b0b0b0; stroke-width: 0.8; stroke-linecap: square"/>
     </g>
     <g id="line2d_8">
      <g>
       <use xlink:href="#m44dbc7bfb0" x="236.702901" y="307.584" style="stroke: #000000; stroke-width: 0.8"/>
      </g>
     </g>
     <g id="text_4">
      <!-- 150 -->
      <g transform="translate(227.159151 322.182437)scale(0.1 -0.1)">
       <use xlink:href="#DejaVuSans-31"/>
       <use xlink:href="#DejaVuSans-35" x="63.623047"/>
       <use xlink:href="#DejaVuSans-30" x="127.246094"/>
      </g>
     </g>
    </g>
    <g id="xtick_5">
     <g id="line2d_9">
      <path d="M 290.992958 307.584 
L 290.992958 41.472 
" clip-path="url(#pd27cf416de)" style="fill: none; stroke: #b0b0b0; stroke-width: 0.8; stroke-linecap: square"/>
     </g>
     <g id="line2d_10">
      <g>
       <use xlink:href="#m44dbc7bfb0" x="290.992958" y="307.584" style="stroke: #000000; stroke-width: 0.8"/>
      </g>
     </g>
     <g id="text_5">
      <!-- 200 -->
      <g transform="translate(281.449208 322.182437)scale(0.1 -0.1)">
       <defs>
        <path id="DejaVuSans-32" d="M 1228 531 
L 3431 531 
L 3431 0 
L 469 0 
L 469 531 
Q 828 903 1448 1529 
Q 2069 2156 2228 2338 
Q 2531 2678 2651 2914 
Q 2772 3150 2772 3378 
Q 2772 3750 2511 3984 
Q 2250 4219 1831 4219 
Q 1534 4219 1204 4116 
Q 875 4013 500 3803 
L 500 4441 
Q 881 4594 1212 4672 
Q 1544 4750 1819 4750 
Q 2544 4750 2975 4387 
Q 3406 4025 3406 3419 
Q 3406 3131 3298 2873 
Q 3191 2616 2906 2266 
Q 2828 2175 2409 1742 
Q 1991 1309 1228 531 
z
" transform="scale(0.015625)"/>
       </defs>
       <use xlink:href="#DejaVuSans-32"/>
       <use xlink:href="#DejaVuSans-30" x="63.623047"/>
       <use xlink:href="#DejaVuSans-30" x="127.246094"/>
      </g>
     </g>
    </g>
    <g id="xtick_6">
     <g id="line2d_11">
      <path d="M 345.283016 307.584 
L 345.283016 41.472 
" clip-path="url(#pd27cf416de)" style="fill: none; stroke: #b0b0b0; stroke-width: 0.8; stroke-linecap: square"/>
     </g>
     <g id="line2d_12">
      <g>
       <use xlink:href="#m44dbc7bfb0" x="345.283016" y="307.584" style="stroke: #000000; stroke-width: 0.8"/>
      </g>
     </g>
     <g id="text_6">
      <!-- 250 -->
      <g transform="translate(335.739266 322.182437)scale(0.1 -0.1)">
       <use xlink:href="#DejaVuSans-32"/>
       <use xlink:href="#DejaVuSans-35" x="63.623047"/>
       <use xlink:href="#DejaVuSans-30" x="127.246094"/>
      </g>
     </g>
    </g>
    <g id="xtick_7">
     <g id="line2d_13">
      <path d="M 399.573074 307.584 
L 399.573074 41.472 
" clip-path="url(#pd27cf416de)" style="fill: none; stroke: #b0b0b0; stroke-width: 0.8; stroke-linecap: square"/>
     </g>
     <g id="line2d_14">
      <g>
       <use xlink:href="#m44dbc7bfb0" x="399.573074" y="307.584" style="stroke: #000000; stroke-width: 0.8"/>
      </g>
     </g>
     <g id="text_7">
      <!-- 300 -->
      <g transform="translate(390.029324 322.182437)scale(0.1 -0.1)">
       <defs>
        <path id="DejaVuSans-33" d="M 2597 2516 
Q 3050 2419 3304 2112 
Q 3559 1806 3559 1356 
Q 3559 666 3084 287 
Q 2609 -91 1734 -91 
Q 1441 -91 1130 -33 
Q 819 25 488 141 
L 488 750 
Q 750 597 1062 519 
Q 1375 441 1716 441 
Q 2309 441 2620 675 
Q 2931 909 2931 1356 
Q 2931 1769 2642 2001 
Q 2353 2234 1838 2234 
L 1294 2234 
L 1294 2753 
L 1863 2753 
Q 2328 2753 2575 2939 
Q 2822 3125 2822 3475 
Q 2822 3834 2567 4026 
Q 2313 4219 1838 4219 
Q 1578 4219 1281 4162 
Q 984 4106 628 3988 
L 628 4550 
Q 988 4650 1302 4700 
Q 1616 4750 1894 4750 
Q 2613 4750 3031 4423 
Q 3450 4097 3450 3541 
Q 3450 3153 3228 2886 
Q 3006 2619 2597 2516 
z
" transform="scale(0.015625)"/>
       </defs>
       <use xlink:href="#DejaVuSans-33"/>
       <use xlink:href="#DejaVuSans-30" x="63.623047"/>
       <use xlink:href="#DejaVuSans-30" x="127.246094"/>
      </g>
     </g>
    </g>
    <g id="text_8">
     <!-- Generations -->
     <g transform="translate(205.662344 335.860562)scale(0.1 -0.1)">
      <defs>
       <path id="DejaVuSans-47" d="M 3809 666 
L 3809 1919 
L 2778 1919 
L 2778 2438 
L 4434 2438 
L 4434 434 
Q 4069 175 3628 42 
Q 3188 -91 2688 -91 
Q 1594 -91 976 548 
Q 359 1188 359 2328 
Q 359 3472 976 4111 
Q 1594 4750 2688 4750 
Q 3144 4750 3555 4637 
Q 3966 4525 4313 4306 
L 4313 3634 
Q 3963 3931 3569 4081 
Q 3175 4231 2741 4231 
Q 1884 4231 1454 3753 
Q 1025 3275 1025 2328 
Q 1025 1384 1454 906 
Q 1884 428 2741 428 
Q 3075 428 3337 486 
Q 3600 544 3809 666 
z
" transform="scale(0.015625)"/>
       <path id="DejaVuSans-65" d="M 3597 1894 
L 3597 1613 
L 953 1613 
Q 991 1019 1311 708 
Q 1631 397 2203 397 
Q 2534 397 2845 478 
Q 3156 559 3463 722 
L 3463 178 
Q 3153 47 2828 -22 
Q 2503 -91 2169 -91 
Q 1331 -91 842 396 
Q 353 884 353 1716 
Q 353 2575 817 3079 
Q 1281 3584 2069 3584 
Q 2775 3584 3186 3129 
Q 3597 2675 3597 1894 
z
M 3022 2063 
Q 3016 2534 2758 2815 
Q 2500 3097 2075 3097 
Q 1594 3097 1305 2825 
Q 1016 2553 972 2059 
L 3022 2063 
z
" transform="scale(0.015625)"/>
       <path id="DejaVuSans-6e" d="M 3513 2113 
L 3513 0 
L 2938 0 
L 2938 2094 
Q 2938 2591 2744 2837 
Q 2550 3084 2163 3084 
Q 1697 3084 1428 2787 
Q 1159 2491 1159 1978 
L 1159 0 
L 581 0 
L 581 3500 
L 1159 3500 
L 1159 2956 
Q 1366 3272 1645 3428 
Q 1925 3584 2291 3584 
Q 2894 3584 3203 3211 
Q 3513 2838 3513 2113 
z
" transform="scale(0.015625)"/>
       <path id="DejaVuSans-72" d="M 2631 2963 
Q 2534 3019 2420 3045 
Q 2306 3072 2169 3072 
Q 1681 3072 1420 2755 
Q 1159 2438 1159 1844 
L 1159 0 
L 581 0 
L 581 3500 
L 1159 3500 
L 1159 2956 
Q 1341 3275 1631 3429 
Q 1922 3584 2338 3584 
Q 2397 3584 2469 3576 
Q 2541 3569 2628 3553 
L 2631 2963 
z
" transform="scale(0.015625)"/>
       <path id="DejaVuSans-61" d="M 2194 1759 
Q 1497 1759 1228 1600 
Q 959 1441 959 1056 
Q 959 750 1161 570 
Q 1363 391 1709 391 
Q 2188 391 2477 730 
Q 2766 1069 2766 1631 
L 2766 1759 
L 2194 1759 
z
M 3341 1997 
L 3341 0 
L 2766 0 
L 2766 531 
Q 2569 213 2275 61 
Q 1981 -91 1556 -91 
Q 1019 -91 701 211 
Q 384 513 384 1019 
Q 384 1609 779 1909 
Q 1175 2209 1959 2209 
L 2766 2209 
L 2766 2266 
Q 2766 2663 2505 2880 
Q 2244 3097 1772 3097 
Q 1472 3097 1187 3025 
Q 903 2953 641 2809 
L 641 3341 
Q 956 3463 1253 3523 
Q 1550 3584 1831 3584 
Q 2591 3584 2966 3190 
Q 3341 2797 3341 1997 
z
" transform="scale(0.015625)"/>
       <path id="DejaVuSans-74" d="M 1172 4494 
L 1172 3500 
L 2356 3500 
L 2356 3053 
L 1172 3053 
L 1172 1153 
Q 1172 725 1289 603 
Q 1406 481 1766 481 
L 2356 481 
L 2356 0 
L 1766 0 
Q 1100 0 847 248 
Q 594 497 594 1153 
L 594 3053 
L 172 3053 
L 172 3500 
L 594 3500 
L 594 4494 
L 1172 4494 
z
" transform="scale(0.015625)"/>
       <path id="DejaVuSans-69" d="M 603 3500 
L 1178 3500 
L 1178 0 
L 603 0 
L 603 3500 
z
M 603 4863 
L 1178 4863 
L 1178 4134 
L 603 4134 
L 603 4863 
z
" transform="scale(0.015625)"/>
       <path id="DejaVuSans-6f" d="M 1959 3097 
Q 1497 3097 1228 2736 
Q 959 2375 959 1747 
Q 959 1119 1226 758 
Q 1494 397 1959 397 
Q 2419 397 2687 759 
Q 2956 1122 2956 1747 
Q 2956 2369 2687 2733 
Q 2419 3097 1959 3097 
z
M 1959 3584 
Q 2709 3584 3137 3096 
Q 3566 2609 3566 1747 
Q 3566 888 3137 398 
Q 2709 -91 1959 -91 
Q 1206 -91 779 398 
Q 353 888 353 1747 
Q 353 2609 779 3096 
Q 1206 3584 1959 3584 
z
" transform="scale(0.015625)"/>
       <path id="DejaVuSans-73" d="M 2834 3397 
L 2834 2853 
Q 2591 2978 2328 3040 
Q 2066 3103 1784 3103 
Q 1356 3103 1142 2972 
Q 928 2841 928 2578 
Q 928 2378 1081 2264 
Q 1234 2150 1697 2047 
L 1894 2003 
Q 2506 1872 2764 1633 
Q 3022 1394 3022 966 
Q 3022 478 2636 193 
Q 2250 -91 1575 -91 
Q 1294 -91 989 -36 
Q 684 19 347 128 
L 347 722 
Q 666 556 975 473 
Q 1284 391 1588 391 
Q 1994 391 2212 530 
Q 2431 669 2431 922 
Q 2431 1156 2273 1281 
Q 2116 1406 1581 1522 
L 1381 1569 
Q 847 1681 609 1914 
Q 372 2147 372 2553 
Q 372 3047 722 3315 
Q 1072 3584 1716 3584 
Q 2034 3584 2315 3537 
Q 2597 3491 2834 3397 
z
" transform="scale(0.015625)"/>
      </defs>
      <use xlink:href="#DejaVuSans-47"/>
      <use xlink:href="#DejaVuSans-65" x="77.490234"/>
      <use xlink:href="#DejaVuSans-6e" x="139.013672"/>
      <use xlink:href="#DejaVuSans-65" x="202.392578"/>
      <use xlink:href="#DejaVuSans-72" x="263.916016"/>
      <use xlink:href="#DejaVuSans-61" x="305.029297"/>
      <use xlink:href="#DejaVuSans-74" x="366.308594"/>
      <use xlink:href="#DejaVuSans-69" x="405.517578"/>
      <use xlink:href="#DejaVuSans-6f" x="433.300781"/>
      <use xlink:href="#DejaVuSans-6e" x="494.482422"/>
      <use xlink:href="#DejaVuSans-73" x="557.861328"/>
     </g>
    </g>
   </g>
   <g id="matplotlib.axis_2">
    <g id="ytick_1">
     <g id="line2d_15">
      <path d="M 57.6 277.930384 
L 414.72 277.930384 
" clip-path="url(#pd27cf416de)" style="fill: none; stroke: #b0b0b0; stroke-width: 0.8; stroke-linecap: square"/>
     </g>
     <g id="line2d_16">
      <defs>
       <path id="mb703c62e32" d="M 0 0 
L -3.5 0 
" style="stroke: #000000; stroke-width: 0.8"/>
      </defs>
      <g>
       <use xlink:href="#mb703c62e32" x="57.6" y="277.930384" style="stroke: #000000; stroke-width: 0.8"/>
      </g>
     </g>
     <g id="text_9">
      <!-- 0 -->
      <g transform="translate(44.2375 281.729603)scale(0.1 -0.1)">
       <use xlink:href="#DejaVuSans-30"/>
      </g>
     </g>
    </g>
    <g id="ytick_2">
     <g id="line2d_17">
      <path d="M 57.6 247.875142 
L 414.72 247.875142 
" clip-path="url(#pd27cf416de)" style="fill: none; stroke: #b0b0b0; stroke-width: 0.8; stroke-linecap: square"/>
     </g>
     <g id="line2d_18">
      <g>
       <use xlink:href="#mb703c62e32" x="57.6" y="247.875142" style="stroke: #000000; stroke-width: 0.8"/>
      </g>
     </g>
     <g id="text_10">
      <!-- 20 -->
      <g transform="translate(37.875 251.674361)scale(0.1 -0.1)">
       <use xlink:href="#DejaVuSans-32"/>
       <use xlink:href="#DejaVuSans-30" x="63.623047"/>
      </g>
     </g>
    </g>
    <g id="ytick_3">
     <g id="line2d_19">
      <path d="M 57.6 217.819899 
L 414.72 217.819899 
" clip-path="url(#pd27cf416de)" style="fill: none; stroke: #b0b0b0; stroke-width: 0.8; stroke-linecap: square"/>
     </g>
     <g id="line2d_20">
      <g>
       <use xlink:href="#mb703c62e32" x="57.6" y="217.819899" style="stroke: #000000; stroke-width: 0.8"/>
      </g>
     </g>
     <g id="text_11">
      <!-- 40 -->
      <g transform="translate(37.875 221.619118)scale(0.1 -0.1)">
       <defs>
        <path id="DejaVuSans-34" d="M 2419 4116 
L 825 1625 
L 2419 1625 
L 2419 4116 
z
M 2253 4666 
L 3047 4666 
L 3047 1625 
L 3713 1625 
L 3713 1100 
L 3047 1100 
L 3047 0 
L 2419 0 
L 2419 1100 
L 313 1100 
L 313 1709 
L 2253 4666 
z
" transform="scale(0.015625)"/>
       </defs>
       <use xlink:href="#DejaVuSans-34"/>
       <use xlink:href="#DejaVuSans-30" x="63.623047"/>
      </g>
     </g>
    </g>
    <g id="ytick_4">
     <g id="line2d_21">
      <path d="M 57.6 187.764657 
L 414.72 187.764657 
" clip-path="url(#pd27cf416de)" style="fill: none; stroke: #b0b0b0; stroke-width: 0.8; stroke-linecap: square"/>
     </g>
     <g id="line2d_22">
      <g>
       <use xlink:href="#mb703c62e32" x="57.6" y="187.764657" style="stroke: #000000; stroke-width: 0.8"/>
      </g>
     </g>
     <g id="text_12">
      <!-- 60 -->
      <g transform="translate(37.875 191.563876)scale(0.1 -0.1)">
       <defs>
        <path id="DejaVuSans-36" d="M 2113 2584 
Q 1688 2584 1439 2293 
Q 1191 2003 1191 1497 
Q 1191 994 1439 701 
Q 1688 409 2113 409 
Q 2538 409 2786 701 
Q 3034 994 3034 1497 
Q 3034 2003 2786 2293 
Q 2538 2584 2113 2584 
z
M 3366 4563 
L 3366 3988 
Q 3128 4100 2886 4159 
Q 2644 4219 2406 4219 
Q 1781 4219 1451 3797 
Q 1122 3375 1075 2522 
Q 1259 2794 1537 2939 
Q 1816 3084 2150 3084 
Q 2853 3084 3261 2657 
Q 3669 2231 3669 1497 
Q 3669 778 3244 343 
Q 2819 -91 2113 -91 
Q 1303 -91 875 529 
Q 447 1150 447 2328 
Q 447 3434 972 4092 
Q 1497 4750 2381 4750 
Q 2619 4750 2861 4703 
Q 3103 4656 3366 4563 
z
" transform="scale(0.015625)"/>
       </defs>
       <use xlink:href="#DejaVuSans-36"/>
       <use xlink:href="#DejaVuSans-30" x="63.623047"/>
      </g>
     </g>
    </g>
    <g id="ytick_5">
     <g id="line2d_23">
      <path d="M 57.6 157.709415 
L 414.72 157.709415 
" clip-path="url(#pd27cf416de)" style="fill: none; stroke: #b0b0b0; stroke-width: 0.8; stroke-linecap: square"/>
     </g>
     <g id="line2d_24">
      <g>
       <use xlink:href="#mb703c62e32" x="57.6" y="157.709415" style="stroke: #000000; stroke-width: 0.8"/>
      </g>
     </g>
     <g id="text_13">
      <!-- 80 -->
      <g transform="translate(37.875 161.508633)scale(0.1 -0.1)">
       <defs>
        <path id="DejaVuSans-38" d="M 2034 2216 
Q 1584 2216 1326 1975 
Q 1069 1734 1069 1313 
Q 1069 891 1326 650 
Q 1584 409 2034 409 
Q 2484 409 2743 651 
Q 3003 894 3003 1313 
Q 3003 1734 2745 1975 
Q 2488 2216 2034 2216 
z
M 1403 2484 
Q 997 2584 770 2862 
Q 544 3141 544 3541 
Q 544 4100 942 4425 
Q 1341 4750 2034 4750 
Q 2731 4750 3128 4425 
Q 3525 4100 3525 3541 
Q 3525 3141 3298 2862 
Q 3072 2584 2669 2484 
Q 3125 2378 3379 2068 
Q 3634 1759 3634 1313 
Q 3634 634 3220 271 
Q 2806 -91 2034 -91 
Q 1263 -91 848 271 
Q 434 634 434 1313 
Q 434 1759 690 2068 
Q 947 2378 1403 2484 
z
M 1172 3481 
Q 1172 3119 1398 2916 
Q 1625 2713 2034 2713 
Q 2441 2713 2670 2916 
Q 2900 3119 2900 3481 
Q 2900 3844 2670 4047 
Q 2441 4250 2034 4250 
Q 1625 4250 1398 4047 
Q 1172 3844 1172 3481 
z
" transform="scale(0.015625)"/>
       </defs>
       <use xlink:href="#DejaVuSans-38"/>
       <use xlink:href="#DejaVuSans-30" x="63.623047"/>
      </g>
     </g>
    </g>
    <g id="ytick_6">
     <g id="line2d_25">
      <path d="M 57.6 127.654172 
L 414.72 127.654172 
" clip-path="url(#pd27cf416de)" style="fill: none; stroke: #b0b0b0; stroke-width: 0.8; stroke-linecap: square"/>
     </g>
     <g id="line2d_26">
      <g>
       <use xlink:href="#mb703c62e32" x="57.6" y="127.654172" style="stroke: #000000; stroke-width: 0.8"/>
      </g>
     </g>
     <g id="text_14">
      <!-- 100 -->
      <g transform="translate(31.5125 131.453391)scale(0.1 -0.1)">
       <use xlink:href="#DejaVuSans-31"/>
       <use xlink:href="#DejaVuSans-30" x="63.623047"/>
       <use xlink:href="#DejaVuSans-30" x="127.246094"/>
      </g>
     </g>
    </g>
    <g id="ytick_7">
     <g id="line2d_27">
      <path d="M 57.6 97.59893 
L 414.72 97.59893 
" clip-path="url(#pd27cf416de)" style="fill: none; stroke: #b0b0b0; stroke-width: 0.8; stroke-linecap: square"/>
     </g>
     <g id="line2d_28">
      <g>
       <use xlink:href="#mb703c62e32" x="57.6" y="97.59893" style="stroke: #000000; stroke-width: 0.8"/>
      </g>
     </g>
     <g id="text_15">
      <!-- 120 -->
      <g transform="translate(31.5125 101.398149)scale(0.1 -0.1)">
       <use xlink:href="#DejaVuSans-31"/>
       <use xlink:href="#DejaVuSans-32" x="63.623047"/>
       <use xlink:href="#DejaVuSans-30" x="127.246094"/>
      </g>
     </g>
    </g>
    <g id="ytick_8">
     <g id="line2d_29">
      <path d="M 57.6 67.543688 
L 414.72 67.543688 
" clip-path="url(#pd27cf416de)" style="fill: none; stroke: #b0b0b0; stroke-width: 0.8; stroke-linecap: square"/>
     </g>
     <g id="line2d_30">
      <g>
       <use xlink:href="#mb703c62e32" x="57.6" y="67.543688" style="stroke: #000000; stroke-width: 0.8"/>
      </g>
     </g>
     <g id="text_16">
      <!-- 140 -->
      <g transform="translate(31.5125 71.342906)scale(0.1 -0.1)">
       <use xlink:href="#DejaVuSans-31"/>
       <use xlink:href="#DejaVuSans-34" x="63.623047"/>
       <use xlink:href="#DejaVuSans-30" x="127.246094"/>
      </g>
     </g>
    </g>
    <g id="text_17">
     <!-- Fitness -->
     <g transform="translate(25.432812 191.845187)rotate(-90)scale(0.1 -0.1)">
      <defs>
       <path id="DejaVuSans-46" d="M 628 4666 
L 3309 4666 
L 3309 4134 
L 1259 4134 
L 1259 2759 
L 3109 2759 
L 3109 2228 
L 1259 2228 
L 1259 0 
L 628 0 
L 628 4666 
z
" transform="scale(0.015625)"/>
      </defs>
      <use xlink:href="#DejaVuSans-46"/>
      <use xlink:href="#DejaVuSans-69" x="50.269531"/>
      <use xlink:href="#DejaVuSans-74" x="78.052734"/>
      <use xlink:href="#DejaVuSans-6e" x="117.261719"/>
      <use xlink:href="#DejaVuSans-65" x="180.640625"/>
      <use xlink:href="#DejaVuSans-73" x="242.164062"/>
      <use xlink:href="#DejaVuSans-73" x="294.263672"/>
     </g>
    </g>
   </g>
   <g id="line2d_31">
    <path d="M 73.832727 255.569284 
L 142.2382 255.569284 
L 143.324001 255.746753 
L 144.409802 255.746753 
L 145.495604 255.569284 
L 171.554831 255.569284 
L 172.640632 255.746753 
L 173.726434 255.746753 
L 174.812235 255.569284 
L 175.898036 255.569284 
L 176.983837 255.746753 
L 178.069638 255.569284 
L 179.155439 255.569284 
L 180.24124 257.570381 
L 181.327042 255.569284 
L 190.013451 255.569284 
L 191.099252 255.746753 
L 192.185053 255.569284 
L 193.270854 255.569284 
L 194.356656 255.921427 
L 195.442457 255.569284 
L 196.528258 257.570381 
L 198.69986 257.570381 
L 199.785661 255.746753 
L 200.871462 255.569284 
L 203.043065 255.921427 
L 204.128866 255.569284 
L 205.214667 255.921427 
L 206.300468 255.746753 
L 207.386269 257.570381 
L 208.472071 257.570381 
L 209.557872 255.569284 
L 210.643673 255.746753 
L 211.729474 255.746753 
L 212.815275 255.569284 
L 214.986877 255.569284 
L 216.072679 257.570381 
L 217.15848 255.569284 
L 218.244281 257.570381 
L 219.330082 255.746753 
L 220.415883 255.746753 
L 221.501684 255.569284 
L 222.587486 255.569284 
L 223.673287 257.570381 
L 224.759088 257.570381 
L 225.844889 255.569284 
L 226.93069 255.569284 
L 228.016491 257.570381 
L 229.102292 255.569284 
L 232.359696 255.569284 
L 233.445497 255.746753 
L 234.531298 255.569284 
L 235.617099 255.569284 
L 236.702901 257.570381 
L 238.874503 257.570381 
L 239.960304 255.569284 
L 241.046105 255.746753 
L 242.131906 257.570381 
L 243.217708 257.570381 
L 244.303509 255.569284 
L 245.38931 257.570381 
L 246.475111 257.570381 
L 247.560912 255.569284 
L 250.818316 255.569284 
L 251.904117 255.746753 
L 252.989918 255.569284 
L 255.16152 255.569284 
L 256.247321 257.570381 
L 257.333123 255.746753 
L 258.418924 255.569284 
L 259.504725 257.570381 
L 260.590526 255.569284 
L 262.762128 255.569284 
L 263.847929 257.570381 
L 264.933731 255.569284 
L 266.019532 255.569284 
L 267.105333 257.570381 
L 269.276935 257.570381 
L 270.362736 255.746753 
L 271.448538 255.569284 
L 272.534339 255.569284 
L 273.62014 257.570381 
L 275.791742 257.570381 
L 276.877543 255.569284 
L 277.963344 255.569284 
L 279.049146 255.746753 
L 280.134947 255.569284 
L 281.220748 255.921427 
L 282.306549 257.570381 
L 284.478151 257.570381 
L 285.563953 255.569284 
L 287.735555 255.569284 
L 288.821356 255.921427 
L 289.907157 257.570381 
L 290.992958 255.569284 
L 293.164561 255.921427 
L 295.336163 255.569284 
L 296.421964 255.746753 
L 297.507765 255.569284 
L 298.593566 257.404853 
L 299.679368 257.570381 
L 300.765169 255.569284 
L 301.85097 255.921427 
L 302.936771 257.570381 
L 304.022572 257.404853 
L 305.108373 257.570381 
L 306.194175 255.921427 
L 307.279976 255.746753 
L 308.365777 255.746753 
L 309.451578 257.570381 
L 310.537379 255.569284 
L 311.62318 255.569284 
L 312.708981 257.570381 
L 313.794783 255.569284 
L 314.880584 257.404853 
L 315.966385 255.746753 
L 317.052186 255.569284 
L 318.137987 255.746753 
L 319.223788 257.570381 
L 320.30959 255.569284 
L 321.395391 257.570381 
L 322.481192 257.570381 
L 323.566993 255.569284 
L 324.652794 257.570381 
L 325.738595 255.746753 
L 326.824396 255.746753 
L 327.910198 255.569284 
L 330.0818 255.921427 
L 331.167601 257.570381 
L 332.253402 255.569284 
L 333.339203 255.746753 
L 334.425005 255.746753 
L 335.510806 255.569284 
L 336.596607 255.569284 
L 337.682408 255.746753 
L 338.768209 255.569284 
L 339.85401 257.570381 
L 340.939811 255.569284 
L 345.283016 255.569284 
L 346.368817 255.746753 
L 348.54042 255.746753 
L 349.626221 257.570381 
L 351.797823 257.570381 
L 352.883624 255.569284 
L 353.969425 257.570381 
L 355.055227 255.746753 
L 356.141028 257.570381 
L 357.226829 255.569284 
L 363.741636 255.569284 
L 364.827437 255.746753 
L 365.913238 255.569284 
L 366.999039 257.570381 
L 368.08484 255.569284 
L 369.170642 257.570381 
L 370.256443 255.569284 
L 373.513846 255.569284 
L 374.599647 257.570381 
L 375.685448 257.570381 
L 376.77125 255.569284 
L 377.857051 257.570381 
L 381.114454 257.570381 
L 382.200255 255.569284 
L 383.286057 255.746753 
L 386.54346 255.746753 
L 387.629261 255.569284 
L 388.715062 255.569284 
L 389.800863 257.570381 
L 390.886665 257.570381 
L 391.972466 255.569284 
L 394.144068 255.569284 
L 395.229869 255.746753 
L 397.401472 255.746753 
L 398.487273 255.569284 
L 398.487273 255.569284 
" clip-path="url(#pd27cf416de)" style="fill: none; stroke: #0000ff; stroke-width: 1.5; stroke-linecap: square"/>
   </g>
   <g id="line2d_32">
    <path d="M 73.832727 281.506146 
L 74.918528 292.84805 
L 76.00433 295.488 
L 77.090131 284.629206 
L 78.175932 287.32872 
L 80.347534 283.249663 
L 81.433335 281.849661 
L 82.519137 288.381769 
L 83.604938 282.767893 
L 84.690739 281.21597 
L 85.77654 282.513382 
L 86.862341 280.831304 
L 87.948142 280.058047 
L 89.033943 279.984413 
L 90.119745 280.666588 
L 91.205546 280.837518 
L 92.291347 281.673102 
L 93.377148 281.100642 
L 94.462949 282.132766 
L 97.720353 279.254951 
L 98.806154 281.52093 
L 99.891955 279.453555 
L 100.977756 281.312338 
L 102.063557 281.964878 
L 103.149358 279.730192 
L 104.23516 281.825073 
L 106.406762 280.846561 
L 107.492563 280.875398 
L 108.578364 281.866669 
L 109.664165 279.678564 
L 110.749967 281.243928 
L 111.835768 280.03369 
L 112.921569 282.003323 
L 114.00737 280.318056 
L 115.093171 280.334431 
L 116.178972 280.841607 
L 117.264773 281.025808 
L 118.350575 280.208204 
L 119.436376 281.002221 
L 120.522177 281.968341 
L 121.607978 281.668001 
L 122.693779 281.585481 
L 123.77958 280.50461 
L 124.865382 282.902586 
L 125.951183 282.086116 
L 127.036984 282.772204 
L 128.122785 282.69297 
L 129.208586 280.655421 
L 130.294387 283.605628 
L 131.380189 280.350074 
L 132.46599 281.248572 
L 133.551791 279.118382 
L 135.723393 282.925116 
L 136.809194 283.638782 
L 137.894995 282.644203 
L 138.980797 280.563755 
L 140.066598 282.378883 
L 141.152399 282.262102 
L 142.2382 281.931504 
L 143.324001 282.811911 
L 144.409802 281.458432 
L 145.495604 282.39926 
L 146.581405 281.897258 
L 147.667206 282.898005 
L 148.753007 283.165319 
L 149.838808 282.582035 
L 150.924609 282.375622 
L 152.01041 282.414441 
L 153.096212 282.667314 
L 154.182013 282.057472 
L 155.267814 282.229548 
L 156.353615 281.934369 
L 157.439416 281.137121 
L 158.525217 281.608921 
L 159.611019 282.497224 
L 160.69682 280.7705 
L 161.782621 282.998825 
L 162.868422 283.132029 
L 163.954223 281.765134 
L 165.040024 285.104636 
L 166.125825 283.985049 
L 167.211627 282.440486 
L 168.297428 283.28525 
L 169.383229 282.152734 
L 170.46903 281.74897 
L 171.554831 281.493961 
L 172.640632 283.468357 
L 173.726434 282.246343 
L 174.812235 283.865205 
L 175.898036 283.886688 
L 176.983837 282.353409 
L 178.069638 282.662547 
L 179.155439 283.805163 
L 180.24124 281.857295 
L 182.412843 281.9462 
L 183.498644 283.897844 
L 184.584445 282.284131 
L 185.670246 282.906366 
L 186.756047 281.063798 
L 187.841849 283.052242 
L 188.92765 282.618428 
L 190.013451 284.371892 
L 191.099252 281.485485 
L 192.185053 280.429741 
L 193.270854 283.217049 
L 194.356656 283.879938 
L 195.442457 285.132211 
L 196.528258 280.267566 
L 197.614059 282.226662 
L 198.69986 283.131046 
L 199.785661 286.267449 
L 200.871462 285.701879 
L 201.957264 282.754668 
L 203.043065 284.907259 
L 204.128866 281.725579 
L 205.214667 287.302848 
L 206.300468 286.050408 
L 207.386269 281.949997 
L 209.557872 281.663051 
L 210.643673 283.682099 
L 211.729474 282.951773 
L 212.815275 279.986937 
L 213.901076 281.515569 
L 214.986877 283.546094 
L 216.072679 282.946195 
L 217.15848 284.677242 
L 218.244281 280.636856 
L 219.330082 282.75423 
L 220.415883 281.831298 
L 221.501684 281.486754 
L 222.587486 284.016852 
L 223.673287 283.887309 
L 224.759088 281.529177 
L 225.844889 284.981381 
L 226.93069 286.384336 
L 228.016491 282.034979 
L 229.102292 284.724654 
L 230.188094 285.536413 
L 231.273895 283.876089 
L 232.359696 284.391343 
L 233.445497 284.080196 
L 234.531298 285.654554 
L 235.617099 283.577119 
L 236.702901 283.244282 
L 237.788702 285.913149 
L 238.874503 282.241932 
L 239.960304 283.754301 
L 241.046105 284.026358 
L 242.131906 284.738898 
L 243.217708 280.422206 
L 244.303509 283.508208 
L 245.38931 282.069184 
L 246.475111 283.915155 
L 247.560912 283.190585 
L 248.646713 285.128715 
L 250.818316 284.299077 
L 251.904117 287.038486 
L 252.989918 286.508168 
L 254.075719 283.896091 
L 255.16152 283.642888 
L 256.247321 285.904242 
L 257.333123 282.341625 
L 258.418924 282.071423 
L 259.504725 286.872058 
L 260.590526 285.069088 
L 261.676327 287.288898 
L 262.762128 287.516324 
L 263.847929 286.915577 
L 264.933731 286.569835 
L 266.019532 285.170436 
L 267.105333 284.33102 
L 268.191134 283.312701 
L 269.276935 285.544692 
L 270.362736 286.599988 
L 272.534339 286.377757 
L 273.62014 285.06456 
L 274.705941 282.250457 
L 275.791742 282.371916 
L 276.877543 286.458734 
L 277.963344 286.299672 
L 279.049146 281.813379 
L 280.134947 286.260069 
L 281.220748 285.655814 
L 282.306549 283.188274 
L 283.39235 283.449925 
L 284.478151 286.192382 
L 285.563953 284.213245 
L 286.649754 286.743204 
L 287.735555 284.125136 
L 288.821356 283.548811 
L 289.907157 283.49857 
L 290.992958 283.061062 
L 294.250362 286.352662 
L 295.336163 285.532169 
L 296.421964 285.633241 
L 297.507765 285.507087 
L 298.593566 283.236508 
L 299.679368 282.856987 
L 300.765169 283.53693 
L 301.85097 285.681392 
L 302.936771 282.234055 
L 304.022572 280.951975 
L 305.108373 284.176962 
L 306.194175 288.46762 
L 307.279976 284.54037 
L 308.365777 281.68395 
L 309.451578 281.634968 
L 310.537379 284.066757 
L 311.62318 282.630841 
L 312.708981 285.180025 
L 313.794783 281.722844 
L 314.880584 280.550324 
L 315.966385 288.723839 
L 317.052186 288.569409 
L 318.137987 289.491566 
L 319.223788 289.145974 
L 320.30959 283.538137 
L 321.395391 285.349654 
L 322.481192 281.202353 
L 323.566993 286.948627 
L 324.652794 284.747376 
L 325.738595 288.620909 
L 326.824396 285.550866 
L 327.910198 290.301952 
L 328.995999 288.452194 
L 330.0818 289.021352 
L 331.167601 289.046589 
L 332.253402 286.390333 
L 333.339203 292.169204 
L 334.425005 290.068772 
L 335.510806 293.336415 
L 336.596607 287.761162 
L 337.682408 289.309315 
L 338.768209 285.262001 
L 339.85401 288.836365 
L 340.939811 289.584245 
L 342.025613 291.749529 
L 343.111414 288.03165 
L 344.197215 286.576437 
L 345.283016 284.500217 
L 346.368817 289.298916 
L 347.454618 286.821184 
L 348.54042 289.658191 
L 349.626221 288.00649 
L 350.712022 285.015844 
L 351.797823 283.595125 
L 352.883624 290.7301 
L 353.969425 284.429058 
L 355.055227 284.670649 
L 356.141028 286.088253 
L 357.226829 283.308257 
L 358.31263 285.821016 
L 359.398431 284.921997 
L 360.484232 284.319683 
L 361.570033 286.280459 
L 362.655835 292.54912 
L 363.741636 284.78988 
L 364.827437 288.349918 
L 365.913238 289.352269 
L 366.999039 287.67825 
L 368.08484 290.73852 
L 369.170642 287.307949 
L 370.256443 287.953073 
L 371.342244 286.734788 
L 372.428045 287.947488 
L 373.513846 285.903675 
L 374.599647 284.71507 
L 375.685448 285.558796 
L 376.77125 283.664683 
L 377.857051 283.660014 
L 378.942852 284.785239 
L 380.028653 283.170595 
L 381.114454 285.913503 
L 382.200255 288.330915 
L 383.286057 290.313579 
L 384.371858 285.734593 
L 385.457659 287.559606 
L 386.54346 290.49147 
L 387.629261 285.700164 
L 388.715062 284.514639 
L 389.800863 283.143818 
L 390.886665 287.77902 
L 391.972466 285.39376 
L 393.058267 286.495512 
L 394.144068 291.887246 
L 395.229869 284.941688 
L 396.31567 289.10935 
L 397.401472 290.35912 
L 398.487273 292.839146 
L 398.487273 292.839146 
" clip-path="url(#pd27cf416de)" style="fill: none; stroke-dasharray: 9.6,2.4,1.5,2.4; stroke-dashoffset: 0; stroke: #008000; stroke-width: 1.5"/>
   </g>
   <g id="line2d_33">
    <path d="M 73.832727 229.632421 
L 74.918528 218.290517 
L 76.00433 215.650568 
L 77.090131 226.509361 
L 78.175932 223.809848 
L 80.347534 227.888905 
L 81.433335 229.288907 
L 82.519137 222.756799 
L 83.604938 228.370674 
L 84.690739 229.922598 
L 85.77654 228.625186 
L 86.862341 230.307263 
L 87.948142 231.08052 
L 89.033943 231.154154 
L 90.119745 230.471979 
L 91.205546 230.30105 
L 92.291347 229.465466 
L 93.377148 230.037926 
L 94.462949 229.005802 
L 97.720353 231.883617 
L 98.806154 229.617638 
L 99.891955 231.685012 
L 100.977756 229.826229 
L 102.063557 229.173689 
L 103.149358 231.408376 
L 104.23516 229.313495 
L 106.406762 230.292007 
L 107.492563 230.26317 
L 108.578364 229.271898 
L 109.664165 231.460003 
L 110.749967 229.89464 
L 111.835768 231.104878 
L 112.921569 229.135245 
L 114.00737 230.820512 
L 115.093171 230.804136 
L 116.178972 230.29696 
L 117.264773 230.11276 
L 118.350575 230.930363 
L 119.436376 230.136347 
L 120.522177 229.170226 
L 121.607978 229.470567 
L 122.693779 229.553087 
L 123.77958 230.633958 
L 124.865382 228.235982 
L 125.951183 229.052451 
L 127.036984 228.366364 
L 128.122785 228.445597 
L 129.208586 230.483147 
L 130.294387 227.532939 
L 131.380189 230.788493 
L 132.46599 229.889996 
L 133.551791 232.020185 
L 135.723393 228.213452 
L 136.809194 227.499786 
L 137.894995 228.494364 
L 138.980797 230.574812 
L 140.066598 228.759684 
L 141.152399 228.876465 
L 142.2382 229.207063 
L 143.324001 228.681595 
L 144.409802 230.035074 
L 145.495604 228.739307 
L 146.581405 229.24131 
L 147.667206 228.240562 
L 148.753007 227.973248 
L 149.838808 228.556532 
L 150.924609 228.762946 
L 152.01041 228.724127 
L 153.096212 228.471253 
L 154.182013 229.081096 
L 155.267814 228.90902 
L 156.353615 229.204199 
L 157.439416 230.001446 
L 158.525217 229.529647 
L 159.611019 228.641343 
L 160.69682 230.368068 
L 161.782621 228.139743 
L 162.868422 228.006539 
L 163.954223 229.373434 
L 165.040024 226.033931 
L 166.125825 227.153518 
L 167.211627 228.698082 
L 168.297428 227.853318 
L 169.383229 228.985834 
L 170.46903 229.389598 
L 171.554831 229.644607 
L 172.640632 228.025148 
L 173.726434 229.247162 
L 174.812235 227.273363 
L 175.898036 227.251879 
L 176.983837 229.140096 
L 178.069638 228.476021 
L 179.155439 227.333405 
L 180.24124 233.283467 
L 181.327042 229.260112 
L 182.412843 229.192368 
L 183.498644 227.240723 
L 184.584445 228.854437 
L 185.670246 228.232201 
L 186.756047 230.07477 
L 187.841849 228.086326 
L 188.92765 228.52014 
L 190.013451 226.766675 
L 191.099252 230.008021 
L 192.185053 230.708827 
L 193.270854 227.921519 
L 194.356656 227.962916 
L 195.442457 226.006357 
L 196.528258 234.873196 
L 197.614059 232.9141 
L 198.69986 232.009717 
L 199.785661 225.226057 
L 200.871462 225.436689 
L 201.957264 228.738838 
L 203.043065 226.935595 
L 204.128866 229.412988 
L 205.214667 224.540007 
L 206.300468 225.443097 
L 207.386269 233.190765 
L 208.472071 233.330365 
L 209.557872 229.475517 
L 210.643673 227.811407 
L 211.729474 228.541732 
L 212.815275 231.151631 
L 213.901076 229.622999 
L 214.986877 227.592473 
L 216.072679 232.194567 
L 217.15848 226.461325 
L 218.244281 234.503907 
L 219.330082 228.739276 
L 220.415883 229.662208 
L 221.501684 229.651813 
L 222.587486 227.121715 
L 223.673287 231.253453 
L 224.759088 233.611585 
L 225.844889 226.157186 
L 226.93069 224.754231 
L 228.016491 233.105783 
L 229.102292 226.413914 
L 230.188094 225.602154 
L 231.273895 227.262479 
L 232.359696 226.747225 
L 233.445497 227.413309 
L 234.531298 225.484013 
L 235.617099 227.561449 
L 236.702901 231.89648 
L 237.788702 229.227613 
L 238.874503 232.89883 
L 239.960304 227.384267 
L 241.046105 227.467148 
L 242.131906 230.401865 
L 243.217708 234.718557 
L 244.303509 227.63036 
L 245.38931 233.071578 
L 246.475111 231.225607 
L 247.560912 227.947983 
L 248.646713 226.009853 
L 250.818316 226.83949 
L 251.904117 224.45502 
L 252.989918 224.630399 
L 254.075719 227.242477 
L 255.16152 227.49568 
L 256.247321 229.236521 
L 258.418924 229.067144 
L 259.504725 228.268705 
L 261.676327 223.84967 
L 262.762128 223.622244 
L 263.847929 228.225186 
L 264.933731 224.568733 
L 266.019532 225.968132 
L 267.105333 230.809742 
L 268.191134 231.828061 
L 269.276935 229.596071 
L 270.362736 224.893518 
L 271.448538 224.619674 
L 272.534339 224.76081 
L 273.62014 230.076203 
L 274.705941 232.890306 
L 275.791742 232.768847 
L 276.877543 224.679834 
L 277.963344 224.838896 
L 279.049146 229.680127 
L 280.134947 224.878499 
L 281.220748 226.187041 
L 282.306549 231.952488 
L 283.39235 231.690837 
L 284.478151 228.948381 
L 285.563953 226.925323 
L 286.649754 224.395364 
L 287.735555 227.013431 
L 288.821356 228.294043 
L 289.907157 231.642192 
L 290.992958 228.077505 
L 293.164561 226.627427 
L 294.250362 225.140844 
L 295.336163 225.606399 
L 296.421964 225.860265 
L 297.507765 225.63148 
L 298.593566 231.573197 
L 299.679368 232.283775 
L 300.765169 227.601638 
L 301.85097 226.161462 
L 302.936771 232.906708 
L 304.022572 233.857731 
L 305.108373 230.9638 
L 306.194175 223.375234 
L 307.279976 226.953136 
L 308.365777 229.809556 
L 309.451578 233.505794 
L 310.537379 227.07181 
L 312.708981 229.960738 
L 313.794783 229.415724 
L 314.880584 234.259382 
L 315.966385 222.769666 
L 317.052186 222.569159 
L 318.137987 222.00194 
L 319.223788 225.994789 
L 320.30959 227.60043 
L 321.395391 229.791108 
L 322.481192 233.93841 
L 323.566993 224.189941 
L 324.652794 230.393386 
L 325.738595 222.872597 
L 326.824396 225.942639 
L 327.910198 220.836616 
L 328.995999 223.041311 
L 330.0818 222.821502 
L 331.167601 226.094174 
L 332.253402 224.748234 
L 333.339203 219.324302 
L 334.425005 221.424734 
L 335.510806 217.802153 
L 336.596607 223.377406 
L 337.682408 222.184191 
L 338.768209 225.876566 
L 339.85401 226.304398 
L 340.939811 221.554323 
L 342.025613 219.389038 
L 343.111414 223.106917 
L 344.197215 224.562131 
L 345.283016 226.63835 
L 346.368817 222.194589 
L 347.454618 224.672321 
L 348.54042 221.835315 
L 349.626221 227.134272 
L 350.712022 230.124919 
L 351.797823 231.545637 
L 352.883624 220.408468 
L 353.969425 230.711705 
L 355.055227 226.822857 
L 356.141028 229.052509 
L 357.226829 227.830311 
L 358.31263 225.317551 
L 359.398431 226.21657 
L 360.484232 226.818884 
L 361.570033 224.858108 
L 362.655835 218.589447 
L 363.741636 226.348687 
L 364.827437 223.143588 
L 365.913238 221.786298 
L 366.999039 227.462513 
L 368.08484 220.400047 
L 369.170642 227.832813 
L 370.256443 223.185494 
L 371.342244 224.40378 
L 372.428045 223.191079 
L 373.513846 225.234892 
L 374.599647 230.425692 
L 375.685448 229.581966 
L 376.77125 227.473885 
L 377.857051 231.480749 
L 378.942852 230.355523 
L 380.028653 231.970168 
L 381.114454 229.22726 
L 382.200255 222.807652 
L 383.286057 221.179927 
L 384.371858 225.758913 
L 385.457659 223.9339 
L 386.54346 221.002036 
L 387.629261 225.438403 
L 388.715062 226.623929 
L 389.800863 231.996945 
L 390.886665 227.361743 
L 391.972466 225.744808 
L 393.058267 224.643056 
L 394.144068 219.251322 
L 395.229869 226.551817 
L 396.31567 222.384156 
L 397.401472 221.134386 
L 398.487273 218.299421 
L 398.487273 218.299421 
" clip-path="url(#pd27cf416de)" style="fill: none; stroke-dasharray: 9.6,2.4,1.5,2.4; stroke-dashoffset: 0; stroke: #008000; stroke-width: 1.5"/>
   </g>
   <g id="line2d_34">
    <path d="M 73.832727 122.99561 
L 74.918528 94.893958 
L 76.00433 106.465227 
L 77.090131 151.097261 
L 78.175932 98.200035 
L 79.261733 121.342571 
L 80.347534 134.566878 
L 81.433335 144.485108 
L 82.519137 126.301686 
L 83.604938 172.58676 
L 84.690739 147.791185 
L 85.77654 167.627645 
L 86.862341 169.280683 
L 87.948142 162.66853 
L 89.033943 164.321568 
L 90.119745 170.933721 
L 91.205546 165.974606 
L 92.291347 162.66853 
L 93.377148 161.015491 
L 94.462949 151.097261 
L 95.54875 161.015491 
L 96.634552 157.709415 
L 97.720353 170.933721 
L 98.806154 152.7503 
L 99.891955 164.321568 
L 100.977756 159.362453 
L 102.063557 152.7503 
L 103.149358 179.198913 
L 104.23516 162.66853 
L 105.320961 167.627645 
L 106.406762 170.933721 
L 107.492563 164.321568 
L 108.578364 151.097261 
L 109.664165 167.627645 
L 110.749967 174.239798 
L 111.835768 162.66853 
L 112.921569 149.444223 
L 114.00737 154.403338 
L 115.093171 157.709415 
L 116.178972 152.7503 
L 117.264773 151.097261 
L 118.350575 165.974606 
L 119.436376 174.239798 
L 120.522177 151.097261 
L 121.607978 151.097261 
L 122.693779 134.566878 
L 123.77958 157.709415 
L 124.865382 149.444223 
L 125.951183 159.362453 
L 127.036984 147.791185 
L 128.122785 157.709415 
L 129.208586 165.974606 
L 130.294387 144.485108 
L 131.380189 162.66853 
L 132.46599 151.097261 
L 133.551791 179.198913 
L 134.637592 179.198913 
L 135.723393 137.872955 
L 136.809194 136.219916 
L 137.894995 157.709415 
L 138.980797 172.58676 
L 140.066598 157.709415 
L 141.152399 156.056376 
L 142.2382 164.321568 
L 143.324001 156.056376 
L 144.409802 177.545875 
L 145.495604 164.321568 
L 146.581405 172.58676 
L 147.667206 159.362453 
L 148.753007 165.974606 
L 149.838808 146.138146 
L 150.924609 144.485108 
L 152.01041 156.056376 
L 153.096212 147.791185 
L 154.182013 162.66853 
L 155.267814 159.362453 
L 156.353615 164.321568 
L 157.439416 154.403338 
L 158.525217 122.99561 
L 159.611019 165.974606 
L 160.69682 170.933721 
L 161.782621 129.607763 
L 162.868422 151.097261 
L 163.954223 154.403338 
L 165.040024 149.444223 
L 166.125825 141.179031 
L 167.211627 162.66853 
L 168.297428 157.709415 
L 169.383229 165.974606 
L 170.46903 177.545875 
L 171.554831 169.280683 
L 172.640632 159.362453 
L 173.726434 165.974606 
L 175.898036 131.260801 
L 176.983837 157.709415 
L 178.069638 156.056376 
L 179.155439 149.444223 
L 180.24124 170.783445 
L 181.327042 156.056376 
L 182.412843 164.321568 
L 183.498644 146.138146 
L 184.584445 167.627645 
L 185.670246 126.301686 
L 186.756047 162.66853 
L 188.92765 162.66853 
L 190.013451 111.424342 
L 191.099252 167.627645 
L 192.185053 161.015491 
L 193.270854 152.7503 
L 194.356656 167.627645 
L 195.442457 146.138146 
L 196.528258 192.272943 
L 197.614059 174.089522 
L 198.69986 185.66079 
L 199.785661 134.566878 
L 200.871462 141.179031 
L 201.957264 142.83207 
L 203.043065 139.525993 
L 204.128866 167.627645 
L 205.214667 108.118265 
L 206.300468 136.219916 
L 207.386269 185.66079 
L 208.472071 195.57902 
L 209.557872 152.7503 
L 210.643673 149.444223 
L 211.729474 149.444223 
L 212.815275 165.974606 
L 213.901076 161.015491 
L 214.986877 131.260801 
L 216.072679 174.089522 
L 217.15848 146.138146 
L 218.244281 184.007752 
L 219.330082 132.91384 
L 220.415883 161.015491 
L 221.501684 161.015491 
L 222.587486 144.485108 
L 223.673287 192.272943 
L 224.759088 175.74256 
L 225.844889 122.99561 
L 226.93069 101.506112 
L 228.016491 172.436483 
L 229.102292 134.566878 
L 230.188094 146.138146 
L 231.273895 149.444223 
L 232.359696 157.709415 
L 233.445497 161.015491 
L 234.531298 129.607763 
L 235.617099 161.015491 
L 236.702901 180.701675 
L 237.788702 159.212177 
L 238.874503 193.925982 
L 239.960304 151.097261 
L 241.046105 157.709415 
L 242.131906 159.212177 
L 243.217708 174.089522 
L 244.303509 162.66853 
L 245.38931 170.783445 
L 246.475111 175.74256 
L 247.560912 147.791185 
L 248.646713 152.7503 
L 249.732514 151.097261 
L 250.818316 159.362453 
L 251.904117 129.607763 
L 252.989918 137.872955 
L 254.075719 161.015491 
L 255.16152 159.362453 
L 256.247321 127.654172 
L 257.333123 151.097261 
L 258.418924 149.444223 
L 259.504725 122.845334 
L 260.590526 149.444223 
L 261.676327 142.83207 
L 262.762128 127.954725 
L 263.847929 124.498372 
L 264.933731 122.99561 
L 266.019532 154.403338 
L 267.105333 180.701675 
L 268.191134 167.477368 
L 269.276935 152.600024 
L 270.362736 129.607763 
L 271.448538 154.403338 
L 272.534339 122.99561 
L 273.62014 170.783445 
L 274.705941 187.313828 
L 275.791742 179.048637 
L 276.877543 139.525993 
L 277.963344 137.872955 
L 279.049146 144.485108 
L 280.134947 113.07738 
L 281.220748 144.485108 
L 282.306549 141.028755 
L 283.39235 162.518254 
L 284.478151 149.293947 
L 285.563953 142.83207 
L 286.649754 134.566878 
L 287.735555 157.709415 
L 288.821356 132.91384 
L 289.907157 175.74256 
L 290.992958 162.66853 
L 292.07876 137.872955 
L 293.164561 139.525993 
L 294.250362 113.07738 
L 295.336163 118.036495 
L 296.421964 132.91384 
L 297.507765 141.179031 
L 298.593566 164.171292 
L 299.679368 182.354713 
L 300.765169 157.709415 
L 301.85097 144.485108 
L 302.936771 177.395598 
L 304.022572 182.354713 
L 305.108373 177.395598 
L 306.194175 101.506112 
L 307.279976 139.525993 
L 308.365777 154.403338 
L 309.451578 185.66079 
L 310.537379 139.525993 
L 312.708981 142.681794 
L 313.794783 134.566878 
L 314.880584 162.518254 
L 315.966385 126.301686 
L 317.052186 116.383457 
L 318.137987 114.730418 
L 319.223788 137.722679 
L 320.30959 126.301686 
L 321.395391 170.783445 
L 322.481192 182.354713 
L 323.566993 103.15915 
L 324.652794 131.110525 
L 325.738595 66.792307 
L 326.824396 131.260801 
L 327.910198 88.281805 
L 328.995999 103.15915 
L 330.0818 122.99561 
L 331.167601 109.621027 
L 332.253402 151.097261 
L 333.339203 101.506112 
L 334.425005 124.648648 
L 335.510806 104.812188 
L 336.596607 103.15915 
L 337.682408 137.872955 
L 338.768209 129.607763 
L 339.85401 63.335954 
L 340.939811 99.853073 
L 342.025613 106.465227 
L 343.111414 56.874077 
L 344.197215 73.40446 
L 345.283016 144.485108 
L 346.368817 106.465227 
L 347.454618 147.791185 
L 348.54042 114.730418 
L 349.626221 111.274065 
L 350.712022 147.490632 
L 351.797823 154.253062 
L 352.883624 106.465227 
L 353.969425 170.783445 
L 355.055227 129.607763 
L 356.141028 155.9061 
L 357.226829 146.138146 
L 358.31263 116.383457 
L 360.484232 142.83207 
L 361.570033 116.383457 
L 362.655835 114.730418 
L 363.741636 141.179031 
L 364.827437 108.118265 
L 365.913238 139.525993 
L 366.999039 139.375717 
L 368.08484 108.118265 
L 369.170642 134.416602 
L 370.256443 126.301686 
L 371.342244 152.7503 
L 372.428045 127.954725 
L 373.513846 126.301686 
L 374.599647 147.640909 
L 375.685448 159.212177 
L 376.77125 147.791185 
L 377.857051 142.681794 
L 378.942852 127.804449 
L 380.028653 169.130407 
L 381.114454 114.580142 
L 382.200255 70.098383 
L 383.286057 98.200035 
L 384.371858 151.097261 
L 385.457659 122.99561 
L 386.54346 88.281805 
L 387.629261 141.179031 
L 388.715062 141.179031 
L 389.800863 112.927104 
L 390.886665 112.927104 
L 391.972466 126.301686 
L 393.058267 146.138146 
L 394.144068 109.771303 
L 395.229869 132.91384 
L 396.31567 96.546997 
L 397.401472 131.260801 
L 398.487273 53.568 
L 398.487273 53.568 
" clip-path="url(#pd27cf416de)" style="fill: none; stroke: #ff0000; stroke-width: 1.5; stroke-linecap: square"/>
   </g>
   <g id="patch_3">
    <path d="M 57.6 307.584 
L 57.6 41.472 
" style="fill: none; stroke: #000000; stroke-width: 0.8; stroke-linejoin: miter; stroke-linecap: square"/>
   </g>
   <g id="patch_4">
    <path d="M 414.72 307.584 
L 414.72 41.472 
" style="fill: none; stroke: #000000; stroke-width: 0.8; stroke-linejoin: miter; stroke-linecap: square"/>
   </g>
   <g id="patch_5">
    <path d="M 57.6 307.584 
L 414.72 307.584 
" style="fill: none; stroke: #000000; stroke-width: 0.8; stroke-linejoin: miter; stroke-linecap: square"/>
   </g>
   <g id="patch_6">
    <path d="M 57.6 41.472 
L 414.72 41.472 
" style="fill: none; stroke: #000000; stroke-width: 0.8; stroke-linejoin: miter; stroke-linecap: square"/>
   </g>
   <g id="text_18">
    <!-- Population's average and best fitness -->
    <g transform="translate(123.529687 35.472)scale(0.12 -0.12)">
     <defs>
      <path id="DejaVuSans-50" d="M 1259 4147 
L 1259 2394 
L 2053 2394 
Q 2494 2394 2734 2622 
Q 2975 2850 2975 3272 
Q 2975 3691 2734 3919 
Q 2494 4147 2053 4147 
L 1259 4147 
z
M 628 4666 
L 2053 4666 
Q 2838 4666 3239 4311 
Q 3641 3956 3641 3272 
Q 3641 2581 3239 2228 
Q 2838 1875 2053 1875 
L 1259 1875 
L 1259 0 
L 628 0 
L 628 4666 
z
" transform="scale(0.015625)"/>
      <path id="DejaVuSans-70" d="M 1159 525 
L 1159 -1331 
L 581 -1331 
L 581 3500 
L 1159 3500 
L 1159 2969 
Q 1341 3281 1617 3432 
Q 1894 3584 2278 3584 
Q 2916 3584 3314 3078 
Q 3713 2572 3713 1747 
Q 3713 922 3314 415 
Q 2916 -91 2278 -91 
Q 1894 -91 1617 61 
Q 1341 213 1159 525 
z
M 3116 1747 
Q 3116 2381 2855 2742 
Q 2594 3103 2138 3103 
Q 1681 3103 1420 2742 
Q 1159 2381 1159 1747 
Q 1159 1113 1420 752 
Q 1681 391 2138 391 
Q 2594 391 2855 752 
Q 3116 1113 3116 1747 
z
" transform="scale(0.015625)"/>
      <path id="DejaVuSans-75" d="M 544 1381 
L 544 3500 
L 1119 3500 
L 1119 1403 
Q 1119 906 1312 657 
Q 1506 409 1894 409 
Q 2359 409 2629 706 
Q 2900 1003 2900 1516 
L 2900 3500 
L 3475 3500 
L 3475 0 
L 2900 0 
L 2900 538 
Q 2691 219 2414 64 
Q 2138 -91 1772 -91 
Q 1169 -91 856 284 
Q 544 659 544 1381 
z
M 1991 3584 
L 1991 3584 
z
" transform="scale(0.015625)"/>
      <path id="DejaVuSans-6c" d="M 603 4863 
L 1178 4863 
L 1178 0 
L 603 0 
L 603 4863 
z
" transform="scale(0.015625)"/>
      <path id="DejaVuSans-27" d="M 1147 4666 
L 1147 2931 
L 616 2931 
L 616 4666 
L 1147 4666 
z
" transform="scale(0.015625)"/>
      <path id="DejaVuSans-20" transform="scale(0.015625)"/>
      <path id="DejaVuSans-76" d="M 191 3500 
L 800 3500 
L 1894 563 
L 2988 3500 
L 3597 3500 
L 2284 0 
L 1503 0 
L 191 3500 
z
" transform="scale(0.015625)"/>
      <path id="DejaVuSans-67" d="M 2906 1791 
Q 2906 2416 2648 2759 
Q 2391 3103 1925 3103 
Q 1463 3103 1205 2759 
Q 947 2416 947 1791 
Q 947 1169 1205 825 
Q 1463 481 1925 481 
Q 2391 481 2648 825 
Q 2906 1169 2906 1791 
z
M 3481 434 
Q 3481 -459 3084 -895 
Q 2688 -1331 1869 -1331 
Q 1566 -1331 1297 -1286 
Q 1028 -1241 775 -1147 
L 775 -588 
Q 1028 -725 1275 -790 
Q 1522 -856 1778 -856 
Q 2344 -856 2625 -561 
Q 2906 -266 2906 331 
L 2906 616 
Q 2728 306 2450 153 
Q 2172 0 1784 0 
Q 1141 0 747 490 
Q 353 981 353 1791 
Q 353 2603 747 3093 
Q 1141 3584 1784 3584 
Q 2172 3584 2450 3431 
Q 2728 3278 2906 2969 
L 2906 3500 
L 3481 3500 
L 3481 434 
z
" transform="scale(0.015625)"/>
      <path id="DejaVuSans-64" d="M 2906 2969 
L 2906 4863 
L 3481 4863 
L 3481 0 
L 2906 0 
L 2906 525 
Q 2725 213 2448 61 
Q 2172 -91 1784 -91 
Q 1150 -91 751 415 
Q 353 922 353 1747 
Q 353 2572 751 3078 
Q 1150 3584 1784 3584 
Q 2172 3584 2448 3432 
Q 2725 3281 2906 2969 
z
M 947 1747 
Q 947 1113 1208 752 
Q 1469 391 1925 391 
Q 2381 391 2643 752 
Q 2906 1113 2906 1747 
Q 2906 2381 2643 2742 
Q 2381 3103 1925 3103 
Q 1469 3103 1208 2742 
Q 947 2381 947 1747 
z
" transform="scale(0.015625)"/>
      <path id="DejaVuSans-62" d="M 3116 1747 
Q 3116 2381 2855 2742 
Q 2594 3103 2138 3103 
Q 1681 3103 1420 2742 
Q 1159 2381 1159 1747 
Q 1159 1113 1420 752 
Q 1681 391 2138 391 
Q 2594 391 2855 752 
Q 3116 1113 3116 1747 
z
M 1159 2969 
Q 1341 3281 1617 3432 
Q 1894 3584 2278 3584 
Q 2916 3584 3314 3078 
Q 3713 2572 3713 1747 
Q 3713 922 3314 415 
Q 2916 -91 2278 -91 
Q 1894 -91 1617 61 
Q 1341 213 1159 525 
L 1159 0 
L 581 0 
L 581 4863 
L 1159 4863 
L 1159 2969 
z
" transform="scale(0.015625)"/>
      <path id="DejaVuSans-66" d="M 2375 4863 
L 2375 4384 
L 1825 4384 
Q 1516 4384 1395 4259 
Q 1275 4134 1275 3809 
L 1275 3500 
L 2222 3500 
L 2222 3053 
L 1275 3053 
L 1275 0 
L 697 0 
L 697 3053 
L 147 3053 
L 147 3500 
L 697 3500 
L 697 3744 
Q 697 4328 969 4595 
Q 1241 4863 1831 4863 
L 2375 4863 
z
" transform="scale(0.015625)"/>
     </defs>
     <use xlink:href="#DejaVuSans-50"/>
     <use xlink:href="#DejaVuSans-6f" x="56.677734"/>
     <use xlink:href="#DejaVuSans-70" x="117.859375"/>
     <use xlink:href="#DejaVuSans-75" x="181.335938"/>
     <use xlink:href="#DejaVuSans-6c" x="244.714844"/>
     <use xlink:href="#DejaVuSans-61" x="272.498047"/>
     <use xlink:href="#DejaVuSans-74" x="333.777344"/>
     <use xlink:href="#DejaVuSans-69" x="372.986328"/>
     <use xlink:href="#DejaVuSans-6f" x="400.769531"/>
     <use xlink:href="#DejaVuSans-6e" x="461.951172"/>
     <use xlink:href="#DejaVuSans-27" x="525.330078"/>
     <use xlink:href="#DejaVuSans-73" x="552.820312"/>
     <use xlink:href="#DejaVuSans-20" x="604.919922"/>
     <use xlink:href="#DejaVuSans-61" x="636.707031"/>
     <use xlink:href="#DejaVuSans-76" x="697.986328"/>
     <use xlink:href="#DejaVuSans-65" x="757.166016"/>
     <use xlink:href="#DejaVuSans-72" x="818.689453"/>
     <use xlink:href="#DejaVuSans-61" x="859.802734"/>
     <use xlink:href="#DejaVuSans-67" x="921.082031"/>
     <use xlink:href="#DejaVuSans-65" x="984.558594"/>
     <use xlink:href="#DejaVuSans-20" x="1046.082031"/>
     <use xlink:href="#DejaVuSans-61" x="1077.869141"/>
     <use xlink:href="#DejaVuSans-6e" x="1139.148438"/>
     <use xlink:href="#DejaVuSans-64" x="1202.527344"/>
     <use xlink:href="#DejaVuSans-20" x="1266.003906"/>
     <use xlink:href="#DejaVuSans-62" x="1297.791016"/>
     <use xlink:href="#DejaVuSans-65" x="1361.267578"/>
     <use xlink:href="#DejaVuSans-73" x="1422.791016"/>
     <use xlink:href="#DejaVuSans-74" x="1474.890625"/>
     <use xlink:href="#DejaVuSans-20" x="1514.099609"/>
     <use xlink:href="#DejaVuSans-66" x="1545.886719"/>
     <use xlink:href="#DejaVuSans-69" x="1581.091797"/>
     <use xlink:href="#DejaVuSans-74" x="1608.875"/>
     <use xlink:href="#DejaVuSans-6e" x="1648.083984"/>
     <use xlink:href="#DejaVuSans-65" x="1711.462891"/>
     <use xlink:href="#DejaVuSans-73" x="1772.986328"/>
     <use xlink:href="#DejaVuSans-73" x="1825.085938"/>
    </g>
   </g>
   <g id="legend_1">
    <g id="patch_7">
     <path d="M 199.689687 108.1845 
L 272.630313 108.1845 
Q 274.630313 108.1845 274.630313 106.1845 
L 274.630313 48.472 
Q 274.630313 46.472 272.630313 46.472 
L 199.689687 46.472 
Q 197.689687 46.472 197.689687 48.472 
L 197.689687 106.1845 
Q 197.689687 108.1845 199.689687 108.1845 
z
" style="fill: #ffffff; opacity: 0.8; stroke: #cccccc; stroke-linejoin: miter"/>
    </g>
    <g id="line2d_35">
     <path d="M 201.689687 54.570438 
L 211.689687 54.570438 
L 221.689687 54.570438 
" style="fill: none; stroke: #0000ff; stroke-width: 1.5; stroke-linecap: square"/>
    </g>
    <g id="text_19">
     <!-- average -->
     <g transform="translate(229.689687 58.070438)scale(0.1 -0.1)">
      <use xlink:href="#DejaVuSans-61"/>
      <use xlink:href="#DejaVuSans-76" x="61.279297"/>
      <use xlink:href="#DejaVuSans-65" x="120.458984"/>
      <use xlink:href="#DejaVuSans-72" x="181.982422"/>
      <use xlink:href="#DejaVuSans-61" x="223.095703"/>
      <use xlink:href="#DejaVuSans-67" x="284.375"/>
      <use xlink:href="#DejaVuSans-65" x="347.851562"/>
     </g>
    </g>
    <g id="line2d_36">
     <path d="M 201.689687 69.248563 
L 211.689687 69.248563 
L 221.689687 69.248563 
" style="fill: none; stroke-dasharray: 9.6,2.4,1.5,2.4; stroke-dashoffset: 0; stroke: #008000; stroke-width: 1.5"/>
    </g>
    <g id="text_20">
     <!-- -1 sd -->
     <g transform="translate(229.689687 72.748563)scale(0.1 -0.1)">
      <defs>
       <path id="DejaVuSans-2d" d="M 313 2009 
L 1997 2009 
L 1997 1497 
L 313 1497 
L 313 2009 
z
" transform="scale(0.015625)"/>
      </defs>
      <use xlink:href="#DejaVuSans-2d"/>
      <use xlink:href="#DejaVuSans-31" x="36.083984"/>
      <use xlink:href="#DejaVuSans-20" x="99.707031"/>
      <use xlink:href="#DejaVuSans-73" x="131.494141"/>
      <use xlink:href="#DejaVuSans-64" x="183.59375"/>
     </g>
    </g>
    <g id="line2d_37">
     <path d="M 201.689687 83.926688 
L 211.689687 83.926688 
L 221.689687 83.926688 
" style="fill: none; stroke-dasharray: 9.6,2.4,1.5,2.4; stroke-dashoffset: 0; stroke: #008000; stroke-width: 1.5"/>
    </g>
    <g id="text_21">
     <!-- +1 sd -->
     <g transform="translate(229.689687 87.426688)scale(0.1 -0.1)">
      <defs>
       <path id="DejaVuSans-2b" d="M 2944 4013 
L 2944 2272 
L 4684 2272 
L 4684 1741 
L 2944 1741 
L 2944 0 
L 2419 0 
L 2419 1741 
L 678 1741 
L 678 2272 
L 2419 2272 
L 2419 4013 
L 2944 4013 
z
" transform="scale(0.015625)"/>
      </defs>
      <use xlink:href="#DejaVuSans-2b"/>
      <use xlink:href="#DejaVuSans-31" x="83.789062"/>
      <use xlink:href="#DejaVuSans-20" x="147.412109"/>
      <use xlink:href="#DejaVuSans-73" x="179.199219"/>
      <use xlink:href="#DejaVuSans-64" x="231.298828"/>
     </g>
    </g>
    <g id="line2d_38">
     <path d="M 201.689687 98.604813 
L 211.689687 98.604813 
L 221.689687 98.604813 
" style="fill: none; stroke: #ff0000; stroke-width: 1.5; stroke-linecap: square"/>
    </g>
    <g id="text_22">
     <!-- best -->
     <g transform="translate(229.689687 102.104813)scale(0.1 -0.1)">
      <use xlink:href="#DejaVuSans-62"/>
      <use xlink:href="#DejaVuSans-65" x="63.476562"/>
      <use xlink:href="#DejaVuSans-73" x="125"/>
      <use xlink:href="#DejaVuSans-74" x="177.099609"/>
     </g>
    </g>
   </g>
  </g>
 </g>
 <defs>
  <clipPath id="pd27cf416de">
   <rect x="57.6" y="41.472" width="357.12" height="266.112"/>
  </clipPath>
 </defs>
</svg>
