<?xml version="1.0" encoding="UTF-8" standalone="no"?>
<!DOCTYPE svg PUBLIC "-//W3C//DTD SVG 1.1//EN"
 "http://www.w3.org/Graphics/SVG/1.1/DTD/svg11.dtd">
<!-- Generated by graphviz version 2.50.0 (20211204.2007)
 -->
<!-- Pages: 1 -->
<svg width="2688pt" height="282pt"
 viewBox="0.00 0.00 2687.50 282.49" xmlns="http://www.w3.org/2000/svg" xmlns:xlink="http://www.w3.org/1999/xlink">
<g id="graph0" class="graph" transform="scale(1 1) rotate(0) translate(4 278.49)">
<polygon fill="white" stroke="transparent" points="-4,4 -4,-278.49 2683.5,-278.49 2683.5,4 -4,4"/>
<!-- #3 ownership -->
<g id="node1" class="node">
<title>#3 ownership</title>
<polygon fill="lightgray" stroke="black" points="65,-274.49 0,-274.49 0,-256.49 65,-256.49 65,-274.49"/>
<text text-anchor="middle" x="32.5" y="-263.29" font-family="Times,serif" font-size="9.00">#3 ownership</text>
</g>
<!-- #4 ownership -->
<g id="node2" class="node">
<title>#4 ownership</title>
<polygon fill="lightgray" stroke="black" points="148,-274.49 83,-274.49 83,-256.49 148,-256.49 148,-274.49"/>
<text text-anchor="middle" x="115.5" y="-263.29" font-family="Times,serif" font-size="9.00">#4 ownership</text>
</g>
<!-- #5 ownership -->
<g id="node3" class="node">
<title>#5 ownership</title>
<polygon fill="lightgray" stroke="black" points="231,-274.49 166,-274.49 166,-256.49 231,-256.49 231,-274.49"/>
<text text-anchor="middle" x="198.5" y="-263.29" font-family="Times,serif" font-size="9.00">#5 ownership</text>
</g>
<!-- #6 ownership -->
<g id="node4" class="node">
<title>#6 ownership</title>
<polygon fill="lightgray" stroke="black" points="314,-274.49 249,-274.49 249,-256.49 314,-256.49 314,-274.49"/>
<text text-anchor="middle" x="281.5" y="-263.29" font-family="Times,serif" font-size="9.00">#6 ownership</text>
</g>
<!-- #7 ownership -->
<g id="node5" class="node">
<title>#7 ownership</title>
<polygon fill="lightgray" stroke="black" points="675,-274.49 610,-274.49 610,-256.49 675,-256.49 675,-274.49"/>
<text text-anchor="middle" x="642.5" y="-263.29" font-family="Times,serif" font-size="9.00">#7 ownership</text>
</g>
<!-- 6720 -->
<g id="node38" class="node">
<title>6720</title>
<ellipse fill="white" stroke="black" cx="599.5" cy="-195.74" rx="25" ry="25"/>
<text text-anchor="middle" x="599.5" y="-193.54" font-family="Times,serif" font-size="9.00">6720</text>
</g>
<!-- #7 ownership&#45;&gt;6720 -->
<g id="edge15" class="edge">
<title>#7 ownership&#45;&gt;6720</title>
<path fill="none" stroke="red" stroke-width="0.2" d="M637.4,-256.45C632.55,-248.82 624.97,-236.88 617.86,-225.67"/>
<polygon fill="red" stroke="red" stroke-width="0.2" points="620.63,-223.51 612.32,-216.94 614.72,-227.26 620.63,-223.51"/>
</g>
<!-- #8 ownership -->
<g id="node6" class="node">
<title>#8 ownership</title>
<polygon fill="lightgray" stroke="black" points="758,-274.49 693,-274.49 693,-256.49 758,-256.49 758,-274.49"/>
<text text-anchor="middle" x="725.5" y="-263.29" font-family="Times,serif" font-size="9.00">#8 ownership</text>
</g>
<!-- #9 ownership -->
<g id="node7" class="node">
<title>#9 ownership</title>
<polygon fill="lightgray" stroke="black" points="841,-274.49 776,-274.49 776,-256.49 841,-256.49 841,-274.49"/>
<text text-anchor="middle" x="808.5" y="-263.29" font-family="Times,serif" font-size="9.00">#9 ownership</text>
</g>
<!-- #10 ownership -->
<g id="node8" class="node">
<title>#10 ownership</title>
<polygon fill="lightgray" stroke="black" points="929.5,-274.49 859.5,-274.49 859.5,-256.49 929.5,-256.49 929.5,-274.49"/>
<text text-anchor="middle" x="894.5" y="-263.29" font-family="Times,serif" font-size="9.00">#10 ownership</text>
</g>
<!-- #11 ownership -->
<g id="node9" class="node">
<title>#11 ownership</title>
<polygon fill="lightgray" stroke="black" points="846.5,-204.74 776.5,-204.74 776.5,-186.74 846.5,-186.74 846.5,-204.74"/>
<text text-anchor="middle" x="811.5" y="-193.54" font-family="Times,serif" font-size="9.00">#11 ownership</text>
</g>
<!-- 6660 -->
<g id="node39" class="node">
<title>6660</title>
<ellipse fill="white" stroke="black" cx="811.5" cy="-110.25" rx="25" ry="25"/>
<text text-anchor="middle" x="811.5" y="-108.05" font-family="Times,serif" font-size="9.00">6660</text>
</g>
<!-- #11 ownership&#45;&gt;6660 -->
<g id="edge7" class="edge">
<title>#11 ownership&#45;&gt;6660</title>
<path fill="none" stroke="green" stroke-width="0.38" d="M811.5,-186.74C811.5,-177.19 811.5,-160.6 811.5,-145.4"/>
<polygon fill="green" stroke="green" stroke-width="0.38" points="815,-145.2 811.5,-135.2 808,-145.2 815,-145.2"/>
</g>
<!-- #12 ownership -->
<g id="node10" class="node">
<title>#12 ownership</title>
<polygon fill="lightgray" stroke="black" points="1017.5,-274.49 947.5,-274.49 947.5,-256.49 1017.5,-256.49 1017.5,-274.49"/>
<text text-anchor="middle" x="982.5" y="-263.29" font-family="Times,serif" font-size="9.00">#12 ownership</text>
</g>
<!-- #13 ownership -->
<g id="node11" class="node">
<title>#13 ownership</title>
<polygon fill="lightgray" stroke="black" points="561.5,-119.25 491.5,-119.25 491.5,-101.25 561.5,-101.25 561.5,-119.25"/>
<text text-anchor="middle" x="526.5" y="-108.05" font-family="Times,serif" font-size="9.00">#13 ownership</text>
</g>
<!-- take? -->
<g id="node37" class="node">
<title>take?</title>
<ellipse fill="lightblue" stroke="black" cx="526.5" cy="-24.75" rx="25" ry="25"/>
<text text-anchor="middle" x="526.5" y="-22.55" font-family="Times,serif" font-size="9.00">take?</text>
</g>
<!-- #13 ownership&#45;&gt;take? -->
<g id="edge3" class="edge">
<title>#13 ownership&#45;&gt;take?</title>
<path fill="none" stroke="green" stroke-width="0.33" d="M526.5,-101.24C526.5,-91.69 526.5,-75.1 526.5,-59.9"/>
<polygon fill="green" stroke="green" stroke-width="0.33" points="530,-59.7 526.5,-49.7 523,-59.7 530,-59.7"/>
</g>
<!-- #14 ownership -->
<g id="node12" class="node">
<title>#14 ownership</title>
<polygon fill="lightgray" stroke="black" points="591.5,-274.49 521.5,-274.49 521.5,-256.49 591.5,-256.49 591.5,-274.49"/>
<text text-anchor="middle" x="556.5" y="-263.29" font-family="Times,serif" font-size="9.00">#14 ownership</text>
</g>
<!-- #14 ownership&#45;&gt;6720 -->
<g id="edge20" class="edge">
<title>#14 ownership&#45;&gt;6720</title>
<path fill="none" stroke="red" stroke-width="0.27" d="M561.6,-256.45C566.45,-248.82 574.03,-236.88 581.14,-225.67"/>
<polygon fill="red" stroke="red" stroke-width="0.27" points="584.28,-227.26 586.68,-216.94 578.37,-223.51 584.28,-227.26"/>
</g>
<!-- #15 ownership -->
<g id="node13" class="node">
<title>#15 ownership</title>
<polygon fill="lightgray" stroke="black" points="556.5,-204.74 486.5,-204.74 486.5,-186.74 556.5,-186.74 556.5,-204.74"/>
<text text-anchor="middle" x="521.5" y="-193.54" font-family="Times,serif" font-size="9.00">#15 ownership</text>
</g>
<!-- 5374 -->
<g id="node44" class="node">
<title>5374</title>
<ellipse fill="white" stroke="black" cx="445.5" cy="-110.25" rx="25" ry="25"/>
<text text-anchor="middle" x="445.5" y="-108.05" font-family="Times,serif" font-size="9.00">5374</text>
</g>
<!-- #15 ownership&#45;&gt;5374 -->
<g id="edge12" class="edge">
<title>#15 ownership&#45;&gt;5374</title>
<path fill="none" stroke="red" stroke-width="0.24" d="M514.21,-186.74C503.84,-175.34 484.34,-153.92 468.76,-136.8"/>
<polygon fill="red" stroke="red" stroke-width="0.24" points="471.24,-134.33 461.92,-129.29 466.07,-139.04 471.24,-134.33"/>
</g>
<!-- #16 ownership -->
<g id="node14" class="node">
<title>#16 ownership</title>
<polygon fill="lightgray" stroke="black" points="1105.5,-274.49 1035.5,-274.49 1035.5,-256.49 1105.5,-256.49 1105.5,-274.49"/>
<text text-anchor="middle" x="1070.5" y="-263.29" font-family="Times,serif" font-size="9.00">#16 ownership</text>
</g>
<!-- #17 ownership -->
<g id="node15" class="node">
<title>#17 ownership</title>
<polygon fill="lightgray" stroke="black" points="1193.5,-274.49 1123.5,-274.49 1123.5,-256.49 1193.5,-256.49 1193.5,-274.49"/>
<text text-anchor="middle" x="1158.5" y="-263.29" font-family="Times,serif" font-size="9.00">#17 ownership</text>
</g>
<!-- #18 ownership -->
<g id="node16" class="node">
<title>#18 ownership</title>
<polygon fill="lightgray" stroke="black" points="1281.5,-274.49 1211.5,-274.49 1211.5,-256.49 1281.5,-256.49 1281.5,-274.49"/>
<text text-anchor="middle" x="1246.5" y="-263.29" font-family="Times,serif" font-size="9.00">#18 ownership</text>
</g>
<!-- #19 ownership -->
<g id="node17" class="node">
<title>#19 ownership</title>
<polygon fill="lightgray" stroke="black" points="1369.5,-274.49 1299.5,-274.49 1299.5,-256.49 1369.5,-256.49 1369.5,-274.49"/>
<text text-anchor="middle" x="1334.5" y="-263.29" font-family="Times,serif" font-size="9.00">#19 ownership</text>
</g>
<!-- #20 ownership -->
<g id="node18" class="node">
<title>#20 ownership</title>
<polygon fill="lightgray" stroke="black" points="1457.5,-274.49 1387.5,-274.49 1387.5,-256.49 1457.5,-256.49 1457.5,-274.49"/>
<text text-anchor="middle" x="1422.5" y="-263.29" font-family="Times,serif" font-size="9.00">#20 ownership</text>
</g>
<!-- #21 ownership -->
<g id="node19" class="node">
<title>#21 ownership</title>
<polygon fill="lightgray" stroke="black" points="1545.5,-274.49 1475.5,-274.49 1475.5,-256.49 1545.5,-256.49 1545.5,-274.49"/>
<text text-anchor="middle" x="1510.5" y="-263.29" font-family="Times,serif" font-size="9.00">#21 ownership</text>
</g>
<!-- #22 ownership -->
<g id="node20" class="node">
<title>#22 ownership</title>
<polygon fill="lightgray" stroke="black" points="1633.5,-274.49 1563.5,-274.49 1563.5,-256.49 1633.5,-256.49 1633.5,-274.49"/>
<text text-anchor="middle" x="1598.5" y="-263.29" font-family="Times,serif" font-size="9.00">#22 ownership</text>
</g>
<!-- #23 ownership -->
<g id="node21" class="node">
<title>#23 ownership</title>
<polygon fill="lightgray" stroke="black" points="1721.5,-274.49 1651.5,-274.49 1651.5,-256.49 1721.5,-256.49 1721.5,-274.49"/>
<text text-anchor="middle" x="1686.5" y="-263.29" font-family="Times,serif" font-size="9.00">#23 ownership</text>
</g>
<!-- #24 ownership -->
<g id="node22" class="node">
<title>#24 ownership</title>
<polygon fill="lightgray" stroke="black" points="1809.5,-274.49 1739.5,-274.49 1739.5,-256.49 1809.5,-256.49 1809.5,-274.49"/>
<text text-anchor="middle" x="1774.5" y="-263.29" font-family="Times,serif" font-size="9.00">#24 ownership</text>
</g>
<!-- #25 ownership -->
<g id="node23" class="node">
<title>#25 ownership</title>
<polygon fill="lightgray" stroke="black" points="712.5,-204.74 642.5,-204.74 642.5,-186.74 712.5,-186.74 712.5,-204.74"/>
<text text-anchor="middle" x="677.5" y="-193.54" font-family="Times,serif" font-size="9.00">#25 ownership</text>
</g>
<!-- 6162 -->
<g id="node42" class="node">
<title>6162</title>
<ellipse fill="white" stroke="black" cx="701.5" cy="-24.75" rx="25" ry="25"/>
<text text-anchor="middle" x="701.5" y="-22.55" font-family="Times,serif" font-size="9.00">6162</text>
</g>
<!-- #25 ownership&#45;&gt;6162 -->
<g id="edge16" class="edge">
<title>#25 ownership&#45;&gt;6162</title>
<path fill="none" stroke="red" stroke-width="0.22" d="M678.15,-186.49C679.66,-168.22 683.68,-123.02 689.5,-85.5 690.83,-76.95 692.53,-67.77 694.23,-59.23"/>
<polygon fill="red" stroke="red" stroke-width="0.22" points="697.7,-59.72 696.29,-49.22 690.85,-58.31 697.7,-59.72"/>
</g>
<!-- 6589 -->
<g id="node43" class="node">
<title>6589</title>
<ellipse fill="white" stroke="black" cx="605.5" cy="-110.25" rx="25" ry="25"/>
<text text-anchor="middle" x="605.5" y="-108.05" font-family="Times,serif" font-size="9.00">6589</text>
</g>
<!-- #25 ownership&#45;&gt;6589 -->
<g id="edge9" class="edge">
<title>#25 ownership&#45;&gt;6589</title>
<path fill="none" stroke="green" stroke-width="0.2" d="M670.6,-186.74C660.92,-175.51 642.86,-154.57 628.21,-137.58"/>
<polygon fill="green" stroke="green" stroke-width="0.2" points="630.53,-134.91 621.35,-129.62 625.23,-139.48 630.53,-134.91"/>
</g>
<!-- #26 ownership -->
<g id="node24" class="node">
<title>#26 ownership</title>
<polygon fill="lightgray" stroke="black" points="1897.5,-274.49 1827.5,-274.49 1827.5,-256.49 1897.5,-256.49 1897.5,-274.49"/>
<text text-anchor="middle" x="1862.5" y="-263.29" font-family="Times,serif" font-size="9.00">#26 ownership</text>
</g>
<!-- #27 ownership -->
<g id="node25" class="node">
<title>#27 ownership</title>
<polygon fill="lightgray" stroke="black" points="1985.5,-274.49 1915.5,-274.49 1915.5,-256.49 1985.5,-256.49 1985.5,-274.49"/>
<text text-anchor="middle" x="1950.5" y="-263.29" font-family="Times,serif" font-size="9.00">#27 ownership</text>
</g>
<!-- #28 ownership -->
<g id="node26" class="node">
<title>#28 ownership</title>
<polygon fill="lightgray" stroke="black" points="2073.5,-274.49 2003.5,-274.49 2003.5,-256.49 2073.5,-256.49 2073.5,-274.49"/>
<text text-anchor="middle" x="2038.5" y="-263.29" font-family="Times,serif" font-size="9.00">#28 ownership</text>
</g>
<!-- #29 ownership -->
<g id="node27" class="node">
<title>#29 ownership</title>
<polygon fill="lightgray" stroke="black" points="2161.5,-274.49 2091.5,-274.49 2091.5,-256.49 2161.5,-256.49 2161.5,-274.49"/>
<text text-anchor="middle" x="2126.5" y="-263.29" font-family="Times,serif" font-size="9.00">#29 ownership</text>
</g>
<!-- #30 ownership -->
<g id="node28" class="node">
<title>#30 ownership</title>
<polygon fill="lightgray" stroke="black" points="2249.5,-274.49 2179.5,-274.49 2179.5,-256.49 2249.5,-256.49 2249.5,-274.49"/>
<text text-anchor="middle" x="2214.5" y="-263.29" font-family="Times,serif" font-size="9.00">#30 ownership</text>
</g>
<!-- #31 ownership -->
<g id="node29" class="node">
<title>#31 ownership</title>
<polygon fill="lightgray" stroke="black" points="768.5,-119.25 698.5,-119.25 698.5,-101.25 768.5,-101.25 768.5,-119.25"/>
<text text-anchor="middle" x="733.5" y="-108.05" font-family="Times,serif" font-size="9.00">#31 ownership</text>
</g>
<!-- #31 ownership&#45;&gt;6162 -->
<g id="edge5" class="edge">
<title>#31 ownership&#45;&gt;6162</title>
<path fill="none" stroke="green" stroke-width="0.46" d="M730.43,-101.24C726.6,-91.23 719.8,-73.51 713.76,-57.74"/>
<polygon fill="green" stroke="green" stroke-width="0.46" points="716.98,-56.35 710.13,-48.27 710.44,-58.86 716.98,-56.35"/>
</g>
<!-- #32 ownership -->
<g id="node30" class="node">
<title>#32 ownership</title>
<polygon fill="lightgray" stroke="black" points="2337.5,-274.49 2267.5,-274.49 2267.5,-256.49 2337.5,-256.49 2337.5,-274.49"/>
<text text-anchor="middle" x="2302.5" y="-263.29" font-family="Times,serif" font-size="9.00">#32 ownership</text>
</g>
<!-- #33 ownership -->
<g id="node31" class="node">
<title>#33 ownership</title>
<polygon fill="lightgray" stroke="black" points="2425.5,-274.49 2355.5,-274.49 2355.5,-256.49 2425.5,-256.49 2425.5,-274.49"/>
<text text-anchor="middle" x="2390.5" y="-263.29" font-family="Times,serif" font-size="9.00">#33 ownership</text>
</g>
<!-- #34 ownership -->
<g id="node32" class="node">
<title>#34 ownership</title>
<polygon fill="lightgray" stroke="black" points="2513.5,-274.49 2443.5,-274.49 2443.5,-256.49 2513.5,-256.49 2513.5,-274.49"/>
<text text-anchor="middle" x="2478.5" y="-263.29" font-family="Times,serif" font-size="9.00">#34 ownership</text>
</g>
<!-- #35 ownership -->
<g id="node33" class="node">
<title>#35 ownership</title>
<polygon fill="lightgray" stroke="black" points="2601.5,-274.49 2531.5,-274.49 2531.5,-256.49 2601.5,-256.49 2601.5,-274.49"/>
<text text-anchor="middle" x="2566.5" y="-263.29" font-family="Times,serif" font-size="9.00">#35 ownership</text>
</g>
<!-- card number -->
<g id="node34" class="node">
<title>card number</title>
<polygon fill="lightgray" stroke="black" points="468,-204.74 407,-204.74 407,-186.74 468,-186.74 468,-204.74"/>
<text text-anchor="middle" x="437.5" y="-193.54" font-family="Times,serif" font-size="9.00">card number</text>
</g>
<!-- card number&#45;&gt;5374 -->
<g id="edge4" class="edge">
<title>card number&#45;&gt;5374</title>
<path fill="none" stroke="red" stroke-width="0.37" d="M438.27,-186.74C439.18,-177.19 440.77,-160.6 442.23,-145.4"/>
<polygon fill="red" stroke="red" stroke-width="0.37" points="445.74,-145.49 443.2,-135.2 438.77,-144.82 445.74,-145.49"/>
</g>
<!-- num counters -->
<g id="node35" class="node">
<title>num counters</title>
<polygon fill="lightgray" stroke="black" points="397,-274.49 332,-274.49 332,-256.49 397,-256.49 397,-274.49"/>
<text text-anchor="middle" x="364.5" y="-263.29" font-family="Times,serif" font-size="9.00">num counters</text>
</g>
<!-- num counters&#45;&gt;6720 -->
<g id="edge10" class="edge">
<title>num counters&#45;&gt;6720</title>
<path fill="none" stroke="green" stroke-width="0.33" d="M397.04,-261.35C437.83,-256.52 509.21,-245.13 565.5,-220.49 567.59,-219.58 569.68,-218.53 571.75,-217.38"/>
<polygon fill="green" stroke="green" stroke-width="0.33" points="573.85,-220.2 580.51,-211.96 570.16,-214.25 573.85,-220.2"/>
</g>
<!-- 6985 -->
<g id="node41" class="node">
<title>6985</title>
<ellipse fill="white" stroke="black" cx="364.5" cy="-195.74" rx="25" ry="25"/>
<text text-anchor="middle" x="364.5" y="-193.54" font-family="Times,serif" font-size="9.00">6985</text>
</g>
<!-- num counters&#45;&gt;6985 -->
<g id="edge18" class="edge">
<title>num counters&#45;&gt;6985</title>
<path fill="none" stroke="green" stroke-width="0.18" d="M364.5,-256.45C364.5,-250.02 364.5,-240.52 364.5,-230.99"/>
<polygon fill="green" stroke="green" stroke-width="0.18" points="368,-230.76 364.5,-220.76 361,-230.76 368,-230.76"/>
</g>
<!-- num counters&#45;&gt;5374 -->
<g id="edge1" class="edge">
<title>num counters&#45;&gt;5374</title>
<path fill="none" stroke="red" stroke-width="0.11" stroke-dasharray="1,5" d="M355.53,-256.43C347.22,-248.3 335.43,-234.93 330.5,-220.49 323.39,-199.67 319.08,-189.8 330.5,-170.99 347.9,-142.35 383.99,-126.81 411.13,-118.82"/>
<polygon fill="red" stroke="red" stroke-width="0.11" points="412.31,-122.13 421.03,-116.12 410.46,-115.38 412.31,-122.13"/>
</g>
<!-- player index -->
<g id="node36" class="node">
<title>player index</title>
<polygon fill="lightgray" stroke="black" points="2679.5,-274.49 2619.5,-274.49 2619.5,-256.49 2679.5,-256.49 2679.5,-274.49"/>
<text text-anchor="middle" x="2649.5" y="-263.29" font-family="Times,serif" font-size="9.00">player index</text>
</g>
<!-- 6720&#45;&gt;6589 -->
<g id="edge17" class="edge">
<title>6720&#45;&gt;6589</title>
<path fill="none" stroke="red" stroke-width="0.25" d="M601.2,-171.04C601.78,-163.02 602.44,-153.9 603.06,-145.24"/>
<polygon fill="red" stroke="red" stroke-width="0.25" points="606.57,-145.23 603.79,-135.01 599.58,-144.73 606.57,-145.23"/>
</g>
<!-- 6720&#45;&gt;5374 -->
<g id="edge11" class="edge">
<title>6720&#45;&gt;5374</title>
<path fill="none" stroke="green" stroke-width="0.32" d="M580.16,-180.24C575.47,-177.01 570.4,-173.73 565.5,-170.99 530.4,-151.38 517.98,-153.92 482.5,-134.99 479.76,-133.53 476.96,-131.94 474.18,-130.28"/>
<polygon fill="green" stroke="green" stroke-width="0.32" points="475.85,-127.2 465.5,-124.92 472.16,-133.15 475.85,-127.2"/>
</g>
<!-- 6852 -->
<g id="node40" class="node">
<title>6852</title>
<ellipse fill="white" stroke="black" cx="811.5" cy="-24.75" rx="25" ry="25"/>
<text text-anchor="middle" x="811.5" y="-22.55" font-family="Times,serif" font-size="9.00">6852</text>
</g>
<!-- 6660&#45;&gt;6852 -->
<g id="edge14" class="edge">
<title>6660&#45;&gt;6852</title>
<path fill="none" stroke="red" stroke-width="0.23" d="M811.5,-85.1C811.5,-77.15 811.5,-68.17 811.5,-59.64"/>
<polygon fill="red" stroke="red" stroke-width="0.23" points="815,-59.56 811.5,-49.56 808,-59.56 815,-59.56"/>
</g>
<!-- 6660&#45;&gt;6162 -->
<g id="edge13" class="edge">
<title>6660&#45;&gt;6162</title>
<path fill="none" stroke="red" stroke-width="0.18" d="M792.09,-94.51C774.6,-81.24 748.71,-61.58 729.08,-46.68"/>
<polygon fill="red" stroke="red" stroke-width="0.18" points="731.17,-43.88 721.09,-40.62 726.94,-49.45 731.17,-43.88"/>
</g>
<!-- 6985&#45;&gt;5374 -->
<g id="edge19" class="edge">
<title>6985&#45;&gt;5374</title>
<path fill="none" stroke="green" stroke-width="0.36" d="M381.28,-177.44C392.9,-165.46 408.55,-149.34 421.48,-136"/>
<polygon fill="green" stroke="green" stroke-width="0.36" points="424.29,-138.14 428.74,-128.52 419.26,-133.27 424.29,-138.14"/>
</g>
<!-- 6589&#45;&gt;take? -->
<g id="edge8" class="edge">
<title>6589&#45;&gt;take?</title>
<path fill="none" stroke="red" stroke-width="0.54" d="M588.75,-91.54C577.54,-79.69 562.63,-63.93 550.21,-50.81"/>
<polygon fill="red" stroke="red" stroke-width="0.54" points="552.64,-48.29 543.23,-43.43 547.56,-53.1 552.64,-48.29"/>
</g>
<!-- 6589&#45;&gt;6162 -->
<g id="edge6" class="edge">
<title>6589&#45;&gt;6162</title>
<path fill="none" stroke="green" stroke-width="0.35" d="M624.01,-93.15C638.62,-80.44 659.18,-62.56 675.45,-48.41"/>
<polygon fill="green" stroke="green" stroke-width="0.35" points="677.8,-51 683.05,-41.8 673.2,-45.72 677.8,-51"/>
</g>
<!-- 5374&#45;&gt;take? -->
<g id="edge2" class="edge">
<title>5374&#45;&gt;take?</title>
<path fill="none" stroke="green" stroke-width="1.04" d="M462.28,-91.95C473.9,-79.97 489.55,-63.84 502.48,-50.5"/>
<polygon fill="green" stroke="green" stroke-width="1.04" points="505.29,-52.64 509.74,-43.03 500.26,-47.77 505.29,-52.64"/>
</g>
</g>
</svg>
